<?xml version="1.0" encoding="utf-8"?>
<svg viewBox="0 0 500 500" xmlns="http://www.w3.org/2000/svg">
  <g transform="matrix(1, 0, 0, 1, -49.94558101730286, -13.967846333022294)">
    <g transform="matrix(1, 0, 0, 1, -25.338198, -14.947712)">
      <rect x="96.17" y="47.969" width="39.78" height="27.347" style="stroke: rgb(0, 0, 0); fill: rgb(255, 255, 255);"/>
      <rect x="135.939" y="47.972" width="39.78" height="27.347" style="stroke: rgb(0, 0, 0); fill: rgb(255, 255, 255);"/>
    </g>
    <g transform="matrix(1, 0, 0, 1, 54.241872, -14.938085)">
      <rect x="96.17" y="47.969" width="39.78" height="27.347" style="stroke: rgb(0, 0, 0); fill: rgb(255, 255, 255);"/>
      <rect x="135.939" y="47.972" width="39.78" height="27.347" style="stroke: rgb(0, 0, 0); fill: rgb(255, 255, 255);"/>
    </g>
    <g transform="matrix(1, 0, 0, 1, 133.762745, -14.976023)">
      <rect x="96.17" y="47.969" width="39.78" height="27.347" style="stroke: rgb(0, 0, 0); fill: rgb(255, 255, 255);"/>
      <rect x="135.939" y="47.972" width="39.78" height="27.347" style="stroke: rgb(0, 0, 0); fill: rgb(255, 255, 255);"/>
    </g>
  </g>
  <path d="M 126.714 5.409 Q 127.38 5.409 127.871 5.699 Q 128.362 5.988 128.625 6.53 Q 128.889 7.072 128.889 7.797 L 128.889 11.342 L 129.49 11.342 Q 129.739 11.342 129.845 11.455 Q 129.951 11.569 129.951 11.84 Q 129.951 12.111 129.845 12.224 Q 129.739 12.338 129.49 12.338 L 127.117 12.338 Q 126.868 12.338 126.761 12.224 Q 126.655 12.111 126.655 11.84 Q 126.655 11.569 126.761 11.455 Q 126.868 11.342 127.117 11.342 L 127.79 11.342 L 127.79 7.907 Q 127.79 7.255 127.49 6.874 Q 127.19 6.493 126.604 6.493 Q 125.981 6.493 125.443 6.852 Q 124.905 7.211 124.582 7.841 Q 124.26 8.471 124.26 9.247 L 124.26 11.342 L 124.934 11.342 Q 125.183 11.342 125.289 11.455 Q 125.395 11.569 125.395 11.84 Q 125.395 12.111 125.289 12.224 Q 125.183 12.338 124.934 12.338 L 122.561 12.338 Q 122.312 12.338 122.206 12.224 Q 122.099 12.111 122.099 11.84 Q 122.099 11.569 122.206 11.455 Q 122.312 11.342 122.561 11.342 L 123.161 11.342 L 123.161 6.567 L 122.414 6.567 Q 122.165 6.567 122.059 6.453 Q 121.953 6.339 121.953 6.068 Q 121.953 5.797 122.059 5.684 Q 122.165 5.57 122.414 5.57 L 123.725 5.57 Q 123.974 5.57 124.081 5.684 Q 124.187 5.797 124.187 6.068 L 124.187 6.947 Q 124.67 6.2 125.318 5.805 Q 125.967 5.409 126.714 5.409 Z"/>
  <path d="M 134.876 5.409 Q 135.879 5.409 136.685 5.863 Q 137.49 6.317 137.948 7.127 Q 138.406 7.936 138.406 8.954 Q 138.406 9.972 137.948 10.782 Q 137.49 11.591 136.685 12.045 Q 135.879 12.499 134.876 12.499 Q 133.872 12.499 133.067 12.045 Q 132.261 11.591 131.803 10.782 Q 131.345 9.972 131.345 8.954 Q 131.345 7.936 131.803 7.127 Q 132.261 6.317 133.067 5.863 Q 133.872 5.409 134.876 5.409 Z M 134.876 6.493 Q 134.165 6.493 133.627 6.805 Q 133.089 7.116 132.796 7.676 Q 132.503 8.236 132.503 8.954 Q 132.503 9.672 132.796 10.232 Q 133.089 10.793 133.627 11.104 Q 134.165 11.415 134.876 11.415 Q 135.586 11.415 136.124 11.104 Q 136.663 10.793 136.956 10.232 Q 137.249 9.672 137.249 8.954 Q 137.249 8.236 136.956 7.676 Q 136.663 7.116 136.124 6.805 Q 135.586 6.493 134.876 6.493 Z"/>
  <path d="M 142.723 3.483 Q 143.023 3.483 143.147 3.593 Q 143.272 3.703 143.272 3.959 L 143.272 6.156 L 146.282 6.156 Q 146.531 6.156 146.637 6.27 Q 146.744 6.383 146.744 6.654 Q 146.744 6.925 146.637 7.039 Q 146.531 7.152 146.282 7.152 L 143.272 7.152 L 143.272 9.818 Q 143.272 10.653 143.561 11.042 Q 143.851 11.43 144.568 11.43 Q 145.059 11.43 145.601 11.232 Q 146.143 11.034 146.648 10.705 Q 146.751 10.631 146.875 10.631 Q 147.125 10.631 147.3 10.968 Q 147.396 11.159 147.396 11.298 Q 147.396 11.532 147.154 11.679 Q 146.583 12.038 145.879 12.268 Q 145.176 12.499 144.568 12.499 Q 143.323 12.499 142.748 11.851 Q 142.173 11.203 142.173 9.914 L 142.173 7.152 L 140.687 7.152 Q 140.438 7.152 140.331 7.039 Q 140.225 6.925 140.225 6.654 Q 140.225 6.383 140.331 6.27 Q 140.438 6.156 140.687 6.156 L 142.173 6.156 L 142.173 3.959 Q 142.173 3.703 142.298 3.593 Q 142.422 3.483 142.723 3.483 Z"/>
  <path d="M 152.931 5.409 Q 153.993 5.409 154.744 5.838 Q 155.495 6.266 155.897 7.024 Q 156.3 7.782 156.359 8.771 Q 156.359 9.02 156.253 9.123 Q 156.146 9.225 155.897 9.225 L 150.595 9.225 Q 150.646 10.317 151.243 10.877 Q 151.84 11.437 152.931 11.437 Q 153.605 11.437 154.264 11.265 Q 154.923 11.093 155.421 10.807 Q 155.546 10.741 155.648 10.741 Q 155.905 10.741 156.066 11.13 Q 156.132 11.283 156.132 11.408 Q 156.132 11.701 155.81 11.862 Q 155.246 12.148 154.477 12.323 Q 153.708 12.499 152.931 12.499 Q 151.825 12.499 151.042 12.074 Q 150.258 11.65 149.848 10.851 Q 149.438 10.053 149.438 8.954 Q 149.438 7.907 149.884 7.101 Q 150.331 6.296 151.122 5.852 Q 151.913 5.409 152.931 5.409 Z M 152.931 6.471 Q 152.03 6.471 151.441 6.929 Q 150.851 7.387 150.668 8.2 L 155.143 8.2 Q 154.989 7.358 154.436 6.914 Q 153.883 6.471 152.931 6.471 Z"/>
  <path d="M 164.162 5.409 Q 164.462 5.409 164.587 5.519 Q 164.711 5.629 164.711 5.885 L 164.711 7.277 Q 164.711 7.533 164.587 7.643 Q 164.462 7.753 164.162 7.753 Q 163.913 7.753 163.81 7.563 Q 163.495 6.962 162.895 6.717 Q 162.294 6.471 161.371 6.471 Q 160.661 6.471 160.262 6.724 Q 159.863 6.977 159.863 7.431 Q 159.863 7.665 160.013 7.812 Q 160.163 7.958 160.456 8.053 Q 160.698 8.134 161.016 8.178 Q 161.335 8.222 161.84 8.273 Q 162.551 8.354 162.986 8.423 Q 163.422 8.493 163.81 8.632 Q 164.396 8.844 164.722 9.247 Q 165.048 9.65 165.048 10.309 Q 165.048 10.968 164.715 11.463 Q 164.382 11.957 163.741 12.228 Q 163.1 12.499 162.206 12.499 Q 161.415 12.499 160.815 12.279 Q 160.214 12.06 159.767 11.613 L 159.767 12.023 Q 159.767 12.279 159.643 12.389 Q 159.518 12.499 159.218 12.499 Q 158.918 12.499 158.793 12.389 Q 158.669 12.279 158.669 12.023 L 158.669 10.265 Q 158.669 10.009 158.793 9.899 Q 158.918 9.789 159.218 9.789 Q 159.372 9.789 159.46 9.859 Q 159.548 9.928 159.614 10.089 Q 159.877 10.793 160.493 11.115 Q 161.108 11.437 162.133 11.437 Q 162.983 11.437 163.437 11.13 Q 163.891 10.822 163.891 10.309 Q 163.891 10.06 163.73 9.899 Q 163.569 9.738 163.268 9.635 Q 163.012 9.555 162.679 9.5 Q 162.346 9.445 161.833 9.394 Q 161.144 9.32 160.683 9.24 Q 160.222 9.159 159.833 9.005 Q 159.299 8.793 159.002 8.416 Q 158.705 8.039 158.705 7.431 Q 158.705 6.794 159.039 6.336 Q 159.372 5.878 159.962 5.644 Q 160.551 5.409 161.298 5.409 Q 162.009 5.409 162.598 5.622 Q 163.188 5.834 163.613 6.215 L 163.613 5.885 Q 163.613 5.629 163.737 5.519 Q 163.862 5.409 164.162 5.409 Z"/>
  <path d="M 33.757 28.492 Q 33.989 28.492 34.088 28.598 Q 34.187 28.704 34.187 28.957 Q 34.187 29.21 34.088 29.315 Q 33.989 29.421 33.757 29.421 L 30.571 29.421 L 30.482 31.616 Q 31.166 31.233 31.952 31.233 Q 32.772 31.233 33.374 31.582 Q 33.976 31.93 34.293 32.549 Q 34.611 33.168 34.611 33.967 Q 34.611 34.767 34.256 35.399 Q 33.9 36.032 33.244 36.394 Q 32.588 36.756 31.727 36.756 Q 31.07 36.756 30.407 36.538 Q 29.744 36.319 29.204 35.943 Q 28.992 35.799 28.992 35.594 Q 28.992 35.444 29.102 35.266 Q 29.279 34.972 29.498 34.972 Q 29.607 34.972 29.73 35.061 Q 30.175 35.376 30.694 35.56 Q 31.214 35.745 31.727 35.745 Q 32.28 35.745 32.69 35.523 Q 33.101 35.3 33.316 34.9 Q 33.531 34.501 33.531 33.967 Q 33.531 33.461 33.33 33.072 Q 33.128 32.682 32.749 32.463 Q 32.369 32.245 31.863 32.245 Q 31.398 32.245 31.029 32.364 Q 30.66 32.484 30.311 32.73 Q 30.202 32.798 29.97 32.798 Q 29.683 32.798 29.563 32.696 Q 29.443 32.593 29.457 32.354 L 29.594 28.936 Q 29.607 28.697 29.717 28.594 Q 29.826 28.492 30.106 28.492 L 33.757 28.492 Z" style="fill: rgb(51, 51, 51); transform-origin: 38.6414px 32.0206px;"/>
  <path d="M 40.29 34.555 Q 40.782 34.555 40.997 34.654 Q 41.213 34.753 41.213 34.986 L 41.213 36.244 Q 41.213 36.476 40.997 36.575 Q 40.782 36.674 40.29 36.674 Q 39.797 36.674 39.582 36.575 Q 39.367 36.476 39.367 36.244 L 39.367 34.986 Q 39.367 34.753 39.582 34.654 Q 39.797 34.555 40.29 34.555 Z" style="fill: rgb(51, 51, 51); transform-origin: 38.6414px 32.0206px;"/>
  <path d="M 50.538 28.492 Q 50.77 28.492 50.87 28.598 Q 50.969 28.704 50.969 28.957 Q 50.969 29.21 50.87 29.315 Q 50.77 29.421 50.538 29.421 L 47.353 29.421 L 47.264 31.616 Q 47.947 31.233 48.733 31.233 Q 49.554 31.233 50.155 31.582 Q 50.757 31.93 51.075 32.549 Q 51.393 33.168 51.393 33.967 Q 51.393 34.767 51.037 35.399 Q 50.682 36.032 50.025 36.394 Q 49.369 36.756 48.508 36.756 Q 47.852 36.756 47.188 36.538 Q 46.525 36.319 45.985 35.943 Q 45.773 35.799 45.773 35.594 Q 45.773 35.444 45.883 35.266 Q 46.061 34.972 46.279 34.972 Q 46.389 34.972 46.512 35.061 Q 46.956 35.376 47.476 35.56 Q 47.995 35.745 48.508 35.745 Q 49.061 35.745 49.472 35.523 Q 49.882 35.3 50.097 34.9 Q 50.312 34.501 50.312 33.967 Q 50.312 33.461 50.111 33.072 Q 49.909 32.682 49.53 32.463 Q 49.15 32.245 48.645 32.245 Q 48.18 32.245 47.811 32.364 Q 47.441 32.484 47.093 32.73 Q 46.983 32.798 46.751 32.798 Q 46.464 32.798 46.344 32.696 Q 46.225 32.593 46.238 32.354 L 46.375 28.936 Q 46.389 28.697 46.498 28.594 Q 46.607 28.492 46.888 28.492 L 50.538 28.492 Z" style="fill: rgb(51, 51, 51); transform-origin: 38.6414px 32.0206px;"/>
  <path d="M 68.643 28.482 Q 69.238 28.482 69.238 29.016 L 69.238 33.356 L 70.345 33.356 Q 70.577 33.356 70.676 33.462 Q 70.776 33.568 70.776 33.821 Q 70.776 34.074 70.676 34.18 Q 70.577 34.286 70.345 34.286 L 69.238 34.286 L 69.238 35.817 L 70.14 35.817 Q 70.372 35.817 70.471 35.923 Q 70.571 36.029 70.571 36.282 Q 70.571 36.535 70.471 36.641 Q 70.372 36.747 70.14 36.747 L 67.2 36.747 Q 66.968 36.747 66.869 36.641 Q 66.77 36.535 66.77 36.282 Q 66.77 36.029 66.869 35.923 Q 66.968 35.817 67.2 35.817 L 68.212 35.817 L 68.212 34.286 L 64.945 34.286 Q 64.712 34.286 64.613 34.18 Q 64.514 34.074 64.514 33.821 Q 64.514 33.596 64.582 33.5 L 67.891 28.899 Q 68.041 28.687 68.212 28.585 Q 68.383 28.482 68.643 28.482 Z M 65.874 33.356 L 68.212 33.356 L 68.267 29.966 Z" style="fill: rgb(51, 51, 51); transform-origin: 74.443px 32.162px;"/>
  <path d="M 76.092 34.696 Q 76.584 34.696 76.799 34.795 Q 77.015 34.894 77.015 35.127 L 77.015 36.385 Q 77.015 36.617 76.799 36.716 Q 76.584 36.815 76.092 36.815 Q 75.599 36.815 75.384 36.716 Q 75.169 36.617 75.169 36.385 L 75.169 35.127 Q 75.169 34.894 75.384 34.795 Q 75.599 34.696 76.092 34.696 Z" style="fill: rgb(51, 51, 51); transform-origin: 74.443px 32.162px;"/>
  <path d="M 86.894 28.633 Q 87.126 28.633 87.225 28.739 Q 87.324 28.845 87.324 29.098 Q 87.324 29.262 87.283 29.371 L 84.371 36.583 Q 84.31 36.74 84.176 36.819 Q 84.043 36.897 83.859 36.897 Q 83.613 36.897 83.459 36.798 Q 83.305 36.699 83.305 36.535 Q 83.305 36.439 83.339 36.364 L 86.121 29.562 L 82.881 29.562 L 82.881 30.56 Q 82.881 30.8 82.765 30.902 Q 82.649 31.005 82.368 31.005 Q 82.088 31.005 81.972 30.902 Q 81.856 30.8 81.856 30.56 L 81.856 29.098 Q 81.856 28.845 81.955 28.739 Q 82.054 28.633 82.286 28.633 L 86.894 28.633 Z" style="fill: rgb(51, 51, 51); transform-origin: 74.443px 32.162px;"/>
  <path d="M 94.736 28.633 Q 94.968 28.633 95.067 28.739 Q 95.167 28.845 95.167 29.098 Q 95.167 29.351 95.067 29.456 Q 94.968 29.562 94.736 29.562 L 91.55 29.562 L 91.461 31.757 Q 92.145 31.374 92.931 31.374 Q 93.752 31.374 94.353 31.723 Q 94.955 32.071 95.273 32.69 Q 95.59 33.309 95.59 34.108 Q 95.59 34.908 95.235 35.54 Q 94.879 36.173 94.223 36.535 Q 93.567 36.897 92.706 36.897 Q 92.049 36.897 91.386 36.679 Q 90.723 36.46 90.183 36.084 Q 89.971 35.94 89.971 35.735 Q 89.971 35.585 90.081 35.407 Q 90.258 35.113 90.477 35.113 Q 90.586 35.113 90.71 35.202 Q 91.154 35.517 91.673 35.701 Q 92.193 35.886 92.706 35.886 Q 93.259 35.886 93.669 35.664 Q 94.08 35.441 94.295 35.041 Q 94.51 34.642 94.51 34.108 Q 94.51 33.602 94.309 33.213 Q 94.107 32.823 93.728 32.604 Q 93.348 32.386 92.842 32.386 Q 92.377 32.386 92.008 32.505 Q 91.639 32.625 91.291 32.871 Q 91.181 32.939 90.949 32.939 Q 90.662 32.939 90.542 32.837 Q 90.422 32.734 90.436 32.495 L 90.573 29.077 Q 90.586 28.838 90.696 28.735 Q 90.805 28.633 91.085 28.633 L 94.736 28.633 Z" style="fill: rgb(51, 51, 51); transform-origin: 74.443px 32.162px;"/>
  <path d="M 113.938 28.481 Q 114.122 28.475 114.228 28.604 Q 114.334 28.734 114.334 29.083 Q 114.334 29.295 114.269 29.387 Q 114.204 29.479 114.081 29.486 Q 112.263 29.582 111.285 30.426 Q 110.308 31.27 110.116 32.72 Q 110.472 32.255 110.991 32.002 Q 111.511 31.749 112.099 31.749 Q 112.851 31.749 113.456 32.07 Q 114.061 32.392 114.406 32.979 Q 114.751 33.567 114.751 34.333 Q 114.751 35.071 114.402 35.656 Q 114.054 36.24 113.415 36.568 Q 112.775 36.896 111.948 36.896 Q 111.203 36.896 110.578 36.555 Q 109.952 36.213 109.569 35.563 Q 109.043 34.661 109.043 33.246 Q 109.043 32.063 109.545 31.011 Q 110.048 29.958 111.145 29.257 Q 112.242 28.557 113.938 28.481 Z M 111.948 32.761 Q 111.449 32.761 111.053 32.949 Q 110.656 33.137 110.434 33.468 Q 110.212 33.8 110.212 34.23 Q 110.212 34.709 110.427 35.085 Q 110.643 35.461 111.036 35.673 Q 111.429 35.885 111.948 35.885 Q 112.468 35.885 112.857 35.693 Q 113.247 35.502 113.459 35.15 Q 113.671 34.798 113.671 34.333 Q 113.671 33.861 113.462 33.506 Q 113.254 33.15 112.868 32.955 Q 112.481 32.761 111.948 32.761 Z" style="fill: rgb(51, 51, 51); transform-origin: 118.603px 32.161px;"/>
  <path d="M 120.252 34.695 Q 120.744 34.695 120.959 34.794 Q 121.175 34.893 121.175 35.126 L 121.175 36.384 Q 121.175 36.616 120.959 36.715 Q 120.744 36.814 120.252 36.814 Q 119.759 36.814 119.544 36.715 Q 119.329 36.616 119.329 36.384 L 119.329 35.126 Q 119.329 34.893 119.544 34.794 Q 119.759 34.695 120.252 34.695 Z" style="fill: rgb(51, 51, 51); transform-origin: 118.603px 32.161px;"/>
  <path d="M 128.648 28.481 Q 129.523 28.481 130.182 29.004 Q 130.842 29.527 131.201 30.481 Q 131.56 31.434 131.56 32.692 Q 131.56 33.95 131.201 34.9 Q 130.842 35.85 130.186 36.373 Q 129.529 36.896 128.648 36.896 Q 127.766 36.896 127.109 36.373 Q 126.453 35.85 126.094 34.9 Q 125.735 33.95 125.735 32.692 Q 125.735 31.434 126.094 30.481 Q 126.453 29.527 127.113 29.004 Q 127.773 28.481 128.648 28.481 Z M 128.648 29.493 Q 128.107 29.493 127.694 29.872 Q 127.28 30.252 127.048 30.973 Q 126.815 31.694 126.815 32.692 Q 126.815 33.69 127.048 34.412 Q 127.28 35.133 127.694 35.509 Q 128.107 35.885 128.648 35.885 Q 129.188 35.885 129.601 35.509 Q 130.015 35.133 130.247 34.412 Q 130.48 33.69 130.48 32.692 Q 130.48 31.694 130.247 30.973 Q 130.015 30.252 129.601 29.872 Q 129.188 29.493 128.648 29.493 Z" style="fill: rgb(51, 51, 51); transform-origin: 118.603px 32.161px;"/>
  <path d="M 190.29 28.482 Q 191.076 28.482 191.664 28.759 Q 192.252 29.036 192.573 29.545 Q 192.895 30.055 192.895 30.738 Q 192.895 31.326 192.621 31.753 Q 192.348 32.181 191.849 32.434 Q 192.471 32.693 192.816 33.192 Q 193.161 33.691 193.161 34.389 Q 193.161 35.134 192.83 35.701 Q 192.498 36.268 191.862 36.583 Q 191.227 36.897 190.345 36.897 Q 189.675 36.897 188.991 36.665 Q 188.308 36.433 187.768 36.036 Q 187.563 35.886 187.563 35.694 Q 187.563 35.558 187.679 35.359 Q 187.857 35.072 188.075 35.072 Q 188.185 35.072 188.308 35.161 Q 188.759 35.496 189.285 35.691 Q 189.812 35.886 190.345 35.886 Q 191.193 35.886 191.637 35.486 Q 192.081 35.086 192.081 34.389 Q 192.081 33.685 191.633 33.319 Q 191.186 32.953 190.379 32.953 L 189.88 32.953 Q 189.648 32.953 189.549 32.847 Q 189.449 32.741 189.449 32.488 Q 189.449 32.235 189.549 32.129 Q 189.648 32.023 189.88 32.023 L 190.256 32.023 Q 191.035 32.023 191.439 31.695 Q 191.842 31.367 191.842 30.738 Q 191.842 30.157 191.439 29.826 Q 191.035 29.494 190.297 29.494 Q 189.504 29.494 188.95 29.761 L 188.95 30.219 Q 188.95 30.458 188.834 30.56 Q 188.718 30.663 188.438 30.663 Q 188.157 30.663 188.041 30.56 Q 187.925 30.458 187.925 30.219 L 187.925 29.474 Q 187.925 29.323 187.969 29.234 Q 188.014 29.145 188.11 29.084 Q 189.087 28.482 190.29 28.482 Z" style="fill: rgb(51, 51, 51); transform-origin: 197.191px 32.162px;"/>
  <path d="M 198.84 34.696 Q 199.332 34.696 199.547 34.795 Q 199.763 34.894 199.763 35.127 L 199.763 36.385 Q 199.763 36.617 199.547 36.716 Q 199.332 36.815 198.84 36.815 Q 198.348 36.815 198.132 36.716 Q 197.917 36.617 197.917 36.385 L 197.917 35.127 Q 197.917 34.894 198.132 34.795 Q 198.348 34.696 198.84 34.696 Z" style="fill: rgb(51, 51, 51); transform-origin: 197.191px 32.162px;"/>
  <path d="M 209.088 28.633 Q 209.32 28.633 209.42 28.739 Q 209.519 28.845 209.519 29.098 Q 209.519 29.351 209.42 29.456 Q 209.32 29.562 209.088 29.562 L 205.903 29.562 L 205.814 31.757 Q 206.497 31.374 207.283 31.374 Q 208.104 31.374 208.705 31.723 Q 209.307 32.071 209.625 32.69 Q 209.943 33.309 209.943 34.108 Q 209.943 34.908 209.587 35.54 Q 209.232 36.173 208.575 36.535 Q 207.919 36.897 207.058 36.897 Q 206.402 36.897 205.738 36.679 Q 205.075 36.46 204.535 36.084 Q 204.323 35.94 204.323 35.735 Q 204.323 35.585 204.433 35.407 Q 204.611 35.113 204.829 35.113 Q 204.939 35.113 205.062 35.202 Q 205.506 35.517 206.026 35.701 Q 206.545 35.886 207.058 35.886 Q 207.611 35.886 208.022 35.664 Q 208.432 35.441 208.647 35.041 Q 208.862 34.642 208.862 34.108 Q 208.862 33.602 208.661 33.213 Q 208.459 32.823 208.08 32.604 Q 207.7 32.386 207.195 32.386 Q 206.73 32.386 206.361 32.505 Q 205.991 32.625 205.643 32.871 Q 205.533 32.939 205.301 32.939 Q 205.014 32.939 204.894 32.837 Q 204.775 32.734 204.788 32.495 L 204.925 29.077 Q 204.939 28.838 205.048 28.735 Q 205.157 28.633 205.438 28.633 L 209.088 28.633 Z" style="fill: rgb(51, 51, 51); transform-origin: 197.191px 32.162px;"/>
  <path d="M 231.883 29.188 Q 232.478 29.188 232.478 29.722 L 232.478 34.062 L 233.585 34.062 Q 233.817 34.062 233.916 34.168 Q 234.016 34.274 234.016 34.527 Q 234.016 34.78 233.916 34.886 Q 233.817 34.992 233.585 34.992 L 232.478 34.992 L 232.478 36.523 L 233.38 36.523 Q 233.612 36.523 233.711 36.629 Q 233.811 36.735 233.811 36.988 Q 233.811 37.241 233.711 37.347 Q 233.612 37.453 233.38 37.453 L 230.44 37.453 Q 230.208 37.453 230.109 37.347 Q 230.01 37.241 230.01 36.988 Q 230.01 36.735 230.109 36.629 Q 230.208 36.523 230.44 36.523 L 231.452 36.523 L 231.452 34.992 L 228.185 34.992 Q 227.952 34.992 227.853 34.886 Q 227.754 34.78 227.754 34.527 Q 227.754 34.302 227.822 34.206 L 231.131 29.605 Q 231.281 29.393 231.452 29.291 Q 231.623 29.188 231.883 29.188 Z M 229.114 34.062 L 231.452 34.062 L 231.507 30.672 Z" style="fill: rgb(51, 51, 51); transform-origin: 237.683px 32.868px;"/>
  <path d="M 239.332 35.402 Q 239.824 35.402 240.039 35.501 Q 240.255 35.6 240.255 35.833 L 240.255 37.091 Q 240.255 37.323 240.039 37.422 Q 239.824 37.521 239.332 37.521 Q 238.839 37.521 238.624 37.422 Q 238.409 37.323 238.409 37.091 L 238.409 35.833 Q 238.409 35.6 238.624 35.501 Q 238.839 35.402 239.332 35.402 Z" style="fill: rgb(51, 51, 51); transform-origin: 237.683px 32.868px;"/>
  <path d="M 249.58 29.339 Q 249.812 29.339 249.912 29.445 Q 250.011 29.551 250.011 29.804 Q 250.011 30.057 249.912 30.162 Q 249.812 30.268 249.58 30.268 L 246.395 30.268 L 246.306 32.463 Q 246.989 32.08 247.775 32.08 Q 248.596 32.08 249.197 32.429 Q 249.799 32.777 250.117 33.396 Q 250.435 34.015 250.435 34.814 Q 250.435 35.614 250.079 36.246 Q 249.724 36.879 249.067 37.241 Q 248.411 37.603 247.55 37.603 Q 246.894 37.603 246.23 37.385 Q 245.567 37.166 245.027 36.79 Q 244.815 36.646 244.815 36.441 Q 244.815 36.291 244.925 36.113 Q 245.103 35.819 245.321 35.819 Q 245.431 35.819 245.554 35.908 Q 245.998 36.223 246.518 36.407 Q 247.037 36.592 247.55 36.592 Q 248.103 36.592 248.514 36.37 Q 248.924 36.147 249.139 35.747 Q 249.354 35.348 249.354 34.814 Q 249.354 34.308 249.153 33.919 Q 248.951 33.529 248.572 33.31 Q 248.192 33.092 247.686 33.092 Q 247.222 33.092 246.853 33.211 Q 246.483 33.331 246.135 33.577 Q 246.025 33.645 245.793 33.645 Q 245.506 33.645 245.386 33.543 Q 245.267 33.44 245.28 33.201 L 245.417 29.783 Q 245.431 29.544 245.54 29.441 Q 245.649 29.339 245.93 29.339 L 249.58 29.339 Z" style="fill: rgb(51, 51, 51); transform-origin: 237.683px 32.868px;"/>
  <path d="M 152.738 28.623 Q 152.922 28.617 153.028 28.746 Q 153.134 28.876 153.134 29.225 Q 153.134 29.437 153.069 29.529 Q 153.004 29.621 152.881 29.628 Q 151.063 29.724 150.085 30.568 Q 149.108 31.412 148.916 32.862 Q 149.272 32.397 149.791 32.144 Q 150.311 31.891 150.899 31.891 Q 151.651 31.891 152.256 32.212 Q 152.861 32.534 153.206 33.121 Q 153.551 33.709 153.551 34.475 Q 153.551 35.213 153.202 35.798 Q 152.854 36.382 152.215 36.71 Q 151.575 37.038 150.748 37.038 Q 150.003 37.038 149.378 36.697 Q 148.752 36.355 148.369 35.705 Q 147.843 34.803 147.843 33.388 Q 147.843 32.205 148.345 31.153 Q 148.848 30.1 149.945 29.399 Q 151.042 28.699 152.738 28.623 Z M 150.748 32.903 Q 150.249 32.903 149.853 33.091 Q 149.456 33.279 149.234 33.61 Q 149.012 33.942 149.012 34.372 Q 149.012 34.851 149.227 35.227 Q 149.443 35.603 149.836 35.815 Q 150.229 36.027 150.748 36.027 Q 151.268 36.027 151.657 35.835 Q 152.047 35.644 152.259 35.292 Q 152.471 34.94 152.471 34.475 Q 152.471 34.003 152.262 33.648 Q 152.054 33.292 151.668 33.097 Q 151.281 32.903 150.748 32.903 Z" style="fill: rgb(51, 51, 51); transform-origin: 157.403px 32.303px;"/>
  <path d="M 159.052 34.837 Q 159.544 34.837 159.759 34.936 Q 159.975 35.035 159.975 35.268 L 159.975 36.526 Q 159.975 36.758 159.759 36.857 Q 159.544 36.956 159.052 36.956 Q 158.559 36.956 158.344 36.857 Q 158.129 36.758 158.129 36.526 L 158.129 35.268 Q 158.129 35.035 158.344 34.936 Q 158.559 34.837 159.052 34.837 Z" style="fill: rgb(51, 51, 51); transform-origin: 157.403px 32.303px;"/>
  <path d="M 167.448 28.623 Q 168.323 28.623 168.982 29.146 Q 169.642 29.669 170.001 30.623 Q 170.36 31.576 170.36 32.834 Q 170.36 34.092 170.001 35.042 Q 169.642 35.992 168.986 36.515 Q 168.329 37.038 167.448 37.038 Q 166.566 37.038 165.909 36.515 Q 165.253 35.992 164.894 35.042 Q 164.535 34.092 164.535 32.834 Q 164.535 31.576 164.894 30.623 Q 165.253 29.669 165.913 29.146 Q 166.573 28.623 167.448 28.623 Z M 167.448 29.635 Q 166.907 29.635 166.494 30.014 Q 166.08 30.394 165.848 31.115 Q 165.615 31.836 165.615 32.834 Q 165.615 33.832 165.848 34.554 Q 166.08 35.275 166.494 35.651 Q 166.907 36.027 167.448 36.027 Q 167.988 36.027 168.401 35.651 Q 168.815 35.275 169.047 34.554 Q 169.28 33.832 169.28 32.834 Q 169.28 31.836 169.047 31.115 Q 168.815 30.394 168.401 30.014 Q 167.988 29.635 167.448 29.635 Z" style="fill: rgb(51, 51, 51); transform-origin: 157.403px 32.303px;"/>
  <path d="M 39.628 51.735 Q 40.503 51.735 41.163 52.258 Q 41.823 52.781 42.181 53.735 Q 42.54 54.688 42.54 55.946 Q 42.54 57.204 42.181 58.154 Q 41.823 59.104 41.166 59.627 Q 40.51 60.15 39.628 60.15 Q 38.746 60.15 38.09 59.627 Q 37.434 59.104 37.075 58.154 Q 36.716 57.204 36.716 55.946 Q 36.716 54.688 37.075 53.735 Q 37.434 52.781 38.094 52.258 Q 38.753 51.735 39.628 51.735 Z M 39.628 52.747 Q 39.088 52.747 38.675 53.126 Q 38.261 53.506 38.029 54.227 Q 37.796 54.948 37.796 55.946 Q 37.796 56.944 38.029 57.666 Q 38.261 58.387 38.675 58.763 Q 39.088 59.139 39.628 59.139 Q 40.168 59.139 40.582 58.763 Q 40.995 58.387 41.228 57.666 Q 41.46 56.944 41.46 55.946 Q 41.46 54.948 41.228 54.227 Q 40.995 53.506 40.582 53.126 Q 40.168 52.747 39.628 52.747 Z" style="fill: rgb(151, 0, 0); transform-origin: 46.365px 55.582px;"/>
  <path d="M 82.087 59.07 Q 82.32 59.07 82.419 59.176 Q 82.518 59.282 82.518 59.535 Q 82.518 59.788 82.419 59.894 Q 82.32 60 82.087 60 L 77.48 60 Q 77.247 60 77.148 59.894 Q 77.049 59.788 77.049 59.535 Q 77.049 59.282 77.148 59.176 Q 77.247 59.07 77.48 59.07 L 79.319 59.07 L 79.319 53.205 L 77.617 54.265 Q 77.5 54.333 77.405 54.333 Q 77.186 54.333 77.029 54.053 Q 76.933 53.889 76.933 53.738 Q 76.933 53.506 77.145 53.383 L 79.722 51.797 Q 79.859 51.715 79.995 51.715 Q 80.146 51.715 80.245 51.814 Q 80.344 51.913 80.344 52.091 L 80.344 59.07 L 82.087 59.07 Z" style="fill: rgb(151, 0, 0); transform-origin: 86.363px 55.3px;"/>
  <path d="M 120.452 51.735 Q 121.245 51.735 121.843 52.019 Q 122.441 52.303 122.769 52.843 Q 123.097 53.383 123.097 54.128 Q 123.097 54.825 122.752 55.41 Q 122.407 55.994 121.675 56.739 L 119.379 59.07 L 122.345 59.07 L 122.345 58.209 Q 122.345 57.97 122.462 57.867 Q 122.578 57.765 122.858 57.765 Q 123.138 57.765 123.255 57.867 Q 123.371 57.97 123.371 58.209 L 123.371 59.535 Q 123.371 59.788 123.272 59.894 Q 123.173 60 122.94 60 L 118.196 60 Q 117.964 60 117.864 59.894 Q 117.765 59.788 117.765 59.535 Q 117.765 59.275 117.868 59.166 L 120.876 56.117 Q 121.505 55.475 121.761 55.047 Q 122.017 54.62 122.017 54.128 Q 122.017 53.492 121.611 53.12 Q 121.204 52.747 120.459 52.747 Q 119.707 52.747 119.044 53.13 L 119.044 53.882 Q 119.044 54.121 118.927 54.224 Q 118.811 54.326 118.531 54.326 Q 118.251 54.326 118.134 54.224 Q 118.018 54.121 118.018 53.882 L 118.018 52.877 Q 118.018 52.61 118.175 52.501 Q 118.674 52.139 119.256 51.937 Q 119.837 51.735 120.452 51.735 Z" style="fill: rgb(151, 0, 0); transform-origin: 127.421px 55.159px;"/>
  <path d="M 160.024 51.735 Q 160.81 51.735 161.398 52.012 Q 161.986 52.289 162.307 52.798 Q 162.629 53.308 162.629 53.991 Q 162.629 54.579 162.355 55.006 Q 162.082 55.434 161.583 55.687 Q 162.205 55.946 162.55 56.445 Q 162.895 56.944 162.895 57.642 Q 162.895 58.387 162.564 58.954 Q 162.232 59.521 161.596 59.836 Q 160.961 60.15 160.079 60.15 Q 159.409 60.15 158.725 59.918 Q 158.042 59.686 157.502 59.289 Q 157.297 59.139 157.297 58.947 Q 157.297 58.811 157.413 58.612 Q 157.591 58.325 157.809 58.325 Q 157.919 58.325 158.042 58.414 Q 158.493 58.749 159.019 58.944 Q 159.546 59.139 160.079 59.139 Q 160.927 59.139 161.371 58.739 Q 161.815 58.339 161.815 57.642 Q 161.815 56.938 161.367 56.572 Q 160.92 56.206 160.113 56.206 L 159.614 56.206 Q 159.382 56.206 159.283 56.1 Q 159.183 55.994 159.183 55.741 Q 159.183 55.488 159.283 55.382 Q 159.382 55.276 159.614 55.276 L 159.99 55.276 Q 160.769 55.276 161.173 54.948 Q 161.576 54.62 161.576 53.991 Q 161.576 53.41 161.173 53.079 Q 160.769 52.747 160.031 52.747 Q 159.238 52.747 158.684 53.014 L 158.684 53.472 Q 158.684 53.711 158.568 53.813 Q 158.452 53.916 158.172 53.916 Q 157.891 53.916 157.775 53.813 Q 157.659 53.711 157.659 53.472 L 157.659 52.727 Q 157.659 52.576 157.703 52.487 Q 157.748 52.398 157.844 52.337 Q 158.821 51.735 160.024 51.735 Z" style="fill: rgb(151, 0, 0); transform-origin: 166.925px 54.595px;"/>
  <path d="M 241.192 51.886 Q 241.424 51.886 241.523 51.992 Q 241.622 52.098 241.622 52.351 Q 241.622 52.604 241.523 52.709 Q 241.424 52.815 241.192 52.815 L 238.006 52.815 L 237.917 55.01 Q 238.601 54.627 239.387 54.627 Q 240.207 54.627 240.809 54.976 Q 241.411 55.324 241.728 55.943 Q 242.046 56.562 242.046 57.361 Q 242.046 58.161 241.691 58.793 Q 241.335 59.426 240.679 59.788 Q 240.023 60.15 239.162 60.15 Q 238.505 60.15 237.842 59.932 Q 237.179 59.713 236.639 59.337 Q 236.427 59.193 236.427 58.988 Q 236.427 58.838 236.537 58.66 Q 236.714 58.366 236.933 58.366 Q 237.042 58.366 237.165 58.455 Q 237.61 58.77 238.129 58.954 Q 238.649 59.139 239.162 59.139 Q 239.715 59.139 240.125 58.917 Q 240.536 58.694 240.751 58.294 Q 240.966 57.895 240.966 57.361 Q 240.966 56.855 240.765 56.466 Q 240.563 56.076 240.184 55.857 Q 239.804 55.639 239.298 55.639 Q 238.833 55.639 238.464 55.758 Q 238.095 55.878 237.747 56.124 Q 237.637 56.192 237.405 56.192 Q 237.118 56.192 236.998 56.09 Q 236.878 55.987 236.892 55.748 L 237.029 52.33 Q 237.042 52.091 237.152 51.988 Q 237.261 51.886 237.541 51.886 L 241.192 51.886 Z" style="fill: rgb(151, 0, 0); transform-origin: 246.076px 53.749px;"/>
  <path d="M 200.207 51.735 Q 200.802 51.735 200.802 52.269 L 200.802 56.609 L 201.909 56.609 Q 202.141 56.609 202.24 56.715 Q 202.34 56.821 202.34 57.074 Q 202.34 57.327 202.24 57.433 Q 202.141 57.539 201.909 57.539 L 200.802 57.539 L 200.802 59.07 L 201.704 59.07 Q 201.936 59.07 202.035 59.176 Q 202.135 59.282 202.135 59.535 Q 202.135 59.788 202.035 59.894 Q 201.936 60 201.704 60 L 198.764 60 Q 198.532 60 198.433 59.894 Q 198.334 59.788 198.334 59.535 Q 198.334 59.282 198.433 59.176 Q 198.532 59.07 198.764 59.07 L 199.776 59.07 L 199.776 57.539 L 196.509 57.539 Q 196.276 57.539 196.177 57.433 Q 196.078 57.327 196.078 57.074 Q 196.078 56.849 196.146 56.753 L 199.455 52.152 Q 199.605 51.94 199.776 51.838 Q 199.947 51.735 200.207 51.735 Z M 197.438 56.609 L 199.776 56.609 L 199.831 53.219 Z" style="fill: rgb(151, 0, 0); transform-origin: 206.007px 54.454px;"/>
</svg>