<?xml version="1.0" encoding="utf-8"?>
<svg width="800" height="600" xmlns="http://www.w3.org/2000/svg">
  <g>
    <title>Layer 1</title>
    <g id="svg_52">
      <rect id="svg_1" height="40" width="100" y="155.66938" x="4.06189" stroke="#000" fill="#fff"/>
      <rect id="svg_2" height="40" width="92" y="155.66938" x="123.06189" stroke="#000" fill="#fff"/>
      <path d="M 22.812 167.531 Q 23.363 167.531 23.292 168.117 L 22.648 173.39 Q 22.613 173.695 22.408 173.859 Q 22.203 174.023 21.851 174.023 Q 21.511 174.023 21.3 173.859 Q 21.089 173.695 21.054 173.39 L 20.41 168.117 Q 20.339 167.531 20.89 167.531 L 22.812 167.531 Z M 28.203 167.531 Q 28.753 167.531 28.683 168.117 L 28.038 173.39 Q 28.003 173.695 27.798 173.859 Q 27.593 174.023 27.242 174.023 Q 26.902 174.023 26.691 173.859 Q 26.48 173.695 26.445 173.39 L 25.8 168.117 Q 25.73 167.531 26.281 167.531 L 28.203 167.531 Z M 44.568 168.492 Q 44.966 168.492 45.136 168.673 Q 45.306 168.855 45.306 169.289 Q 45.306 169.722 45.136 169.904 Q 44.966 170.086 44.568 170.086 L 42.212 170.086 L 42.212 178.5 Q 42.212 180.55 41.017 181.605 Q 39.822 182.66 37.525 182.66 Q 36.189 182.66 35.105 182.185 Q 34.021 181.711 33.271 180.89 Q 33.084 180.668 33.084 180.293 L 33.084 176.953 Q 33.084 176.543 33.283 176.367 Q 33.482 176.191 33.962 176.191 Q 34.443 176.191 34.642 176.367 Q 34.841 176.543 34.841 176.953 L 34.841 180.047 Q 35.826 180.925 37.537 180.925 Q 39.072 180.925 39.763 180.246 Q 40.455 179.566 40.455 178.148 L 40.455 170.086 L 36.459 170.086 Q 36.06 170.086 35.89 169.904 Q 35.72 169.722 35.72 169.289 Q 35.72 168.855 35.89 168.673 Q 36.06 168.492 36.459 168.492 L 44.568 168.492 Z M 53.368 171.316 Q 55.571 171.316 56.672 172.3 Q 57.774 173.285 57.774 175.218 L 57.774 179.882 Q 57.774 180.808 58.547 180.808 L 58.958 180.808 Q 59.356 180.808 59.526 180.99 Q 59.696 181.172 59.696 181.605 Q 59.696 182.039 59.526 182.22 Q 59.356 182.402 58.958 182.402 L 58.208 182.402 Q 57.446 182.402 56.901 182.021 Q 56.356 181.64 56.192 180.902 Q 55.231 181.746 54.112 182.203 Q 52.993 182.66 51.739 182.66 Q 50.555 182.66 49.647 182.256 Q 48.739 181.851 48.223 181.078 Q 47.708 180.304 47.708 179.238 Q 47.708 177.386 49.032 176.502 Q 50.356 175.617 52.454 175.617 Q 54.317 175.617 56.016 176.214 L 56.016 175.218 Q 56.016 174.082 55.378 173.548 Q 54.739 173.015 53.321 173.015 Q 52.442 173.015 51.493 173.261 Q 50.544 173.507 49.688 173.941 Q 49.489 174.047 49.325 174.047 Q 48.938 174.047 48.68 173.484 Q 48.551 173.203 48.551 173.015 Q 48.551 172.605 48.985 172.382 Q 49.969 171.867 51.1 171.591 Q 52.231 171.316 53.368 171.316 Z M 52.465 177.269 Q 51.118 177.269 50.338 177.732 Q 49.559 178.195 49.559 179.203 Q 49.559 180.058 50.151 180.533 Q 50.743 181.007 51.809 181.007 Q 54.141 181.007 56.016 179.074 L 56.016 177.797 Q 55.219 177.539 54.305 177.404 Q 53.391 177.269 52.465 177.269 Z M 69.035 171.316 Q 70.101 171.316 70.886 171.779 Q 71.671 172.242 72.093 173.109 Q 72.515 173.976 72.515 175.136 L 72.515 180.808 L 73.476 180.808 Q 73.875 180.808 74.045 180.99 Q 74.214 181.172 74.214 181.605 Q 74.214 182.039 74.045 182.22 Q 73.875 182.402 73.476 182.402 L 69.679 182.402 Q 69.281 182.402 69.111 182.22 Q 68.941 182.039 68.941 181.605 Q 68.941 181.172 69.111 180.99 Q 69.281 180.808 69.679 180.808 L 70.757 180.808 L 70.757 175.312 Q 70.757 174.269 70.277 173.66 Q 69.796 173.05 68.859 173.05 Q 67.863 173.05 67.002 173.625 Q 66.14 174.199 65.625 175.207 Q 65.109 176.214 65.109 177.457 L 65.109 180.808 L 66.187 180.808 Q 66.586 180.808 66.755 180.99 Q 66.925 181.172 66.925 181.605 Q 66.925 182.039 66.755 182.22 Q 66.586 182.402 66.187 182.402 L 62.39 182.402 Q 61.992 182.402 61.822 182.22 Q 61.652 182.039 61.652 181.605 Q 61.652 181.172 61.822 180.99 Q 61.992 180.808 62.39 180.808 L 63.351 180.808 L 63.351 173.168 L 62.156 173.168 Q 61.757 173.168 61.588 172.986 Q 61.418 172.804 61.418 172.371 Q 61.418 171.937 61.588 171.756 Q 61.757 171.574 62.156 171.574 L 64.254 171.574 Q 64.652 171.574 64.822 171.756 Q 64.992 171.937 64.992 172.371 L 64.992 173.777 Q 65.765 172.582 66.802 171.949 Q 67.839 171.316 69.035 171.316 Z M 80.366 167.531 Q 80.917 167.531 80.846 168.117 L 80.202 173.39 Q 80.167 173.695 79.962 173.859 Q 79.756 174.023 79.405 174.023 Q 79.065 174.023 78.854 173.859 Q 78.643 173.695 78.608 173.39 L 77.963 168.117 Q 77.893 167.531 78.444 167.531 L 80.366 167.531 Z M 85.756 167.531 Q 86.307 167.531 86.237 168.117 L 85.592 173.39 Q 85.557 173.695 85.352 173.859 Q 85.147 174.023 84.796 174.023 Q 84.456 174.023 84.245 173.859 Q 84.034 173.695 83.999 173.39 L 83.354 168.117 Q 83.284 167.531 83.835 167.531 L 85.756 167.531 Z" style="fill: rgb(186, 33, 40); stroke: rgb(0, 0, 0); stroke-width: 0px;"/>
      <path d="M 160.528 168.199 Q 161.887 168.199 162.913 168.685 Q 163.938 169.172 164.501 170.097 Q 165.063 171.023 165.063 172.301 Q 165.063 173.496 164.471 174.498 Q 163.879 175.5 162.626 176.777 L 158.688 180.773 L 163.774 180.773 L 163.774 179.297 Q 163.774 178.887 163.973 178.711 Q 164.172 178.535 164.653 178.535 Q 165.133 178.535 165.333 178.711 Q 165.532 178.887 165.532 179.297 L 165.532 181.57 Q 165.532 182.004 165.362 182.185 Q 165.192 182.367 164.794 182.367 L 156.661 182.367 Q 156.262 182.367 156.092 182.185 Q 155.922 182.004 155.922 181.57 Q 155.922 181.125 156.098 180.937 L 161.254 175.711 Q 162.333 174.609 162.772 173.877 Q 163.211 173.144 163.211 172.301 Q 163.211 171.211 162.514 170.572 Q 161.817 169.933 160.54 169.933 Q 159.251 169.933 158.114 170.59 L 158.114 171.879 Q 158.114 172.289 157.915 172.465 Q 157.715 172.64 157.235 172.64 Q 156.754 172.64 156.555 172.465 Q 156.356 172.289 156.356 171.879 L 156.356 170.156 Q 156.356 169.699 156.626 169.512 Q 157.481 168.89 158.477 168.545 Q 159.473 168.199 160.528 168.199 Z M 178.862 168.199 Q 179.178 168.187 179.36 168.41 Q 179.542 168.633 179.542 169.23 Q 179.542 169.594 179.43 169.752 Q 179.319 169.91 179.108 169.922 Q 175.991 170.086 174.315 171.533 Q 172.639 172.98 172.311 175.465 Q 172.921 174.668 173.811 174.234 Q 174.702 173.801 175.71 173.801 Q 176.999 173.801 178.036 174.351 Q 179.073 174.902 179.665 175.91 Q 180.257 176.918 180.257 178.23 Q 180.257 179.496 179.659 180.498 Q 179.061 181.5 177.966 182.062 Q 176.87 182.625 175.452 182.625 Q 174.175 182.625 173.102 182.039 Q 172.03 181.453 171.374 180.34 Q 170.471 178.793 170.471 176.367 Q 170.471 174.34 171.333 172.535 Q 172.194 170.73 174.075 169.529 Q 175.956 168.328 178.862 168.199 Z M 175.452 175.535 Q 174.596 175.535 173.917 175.857 Q 173.237 176.18 172.856 176.748 Q 172.475 177.316 172.475 178.055 Q 172.475 178.875 172.844 179.519 Q 173.214 180.164 173.887 180.527 Q 174.561 180.89 175.452 180.89 Q 176.342 180.89 177.01 180.562 Q 177.678 180.234 178.042 179.631 Q 178.405 179.027 178.405 178.23 Q 178.405 177.422 178.048 176.812 Q 177.69 176.203 177.028 175.869 Q 176.366 175.535 175.452 175.535 Z" style="fill: rgb(68, 68, 68); stroke: rgb(0, 0, 0); stroke-width: 0px;"/>
      <path transform="rotate(23.3609 192.806 130.976)" id="svg_37" d="m192.80596,130.97555" opacity="undefined" stroke="#000" fill="none"/>
      <path d="M 54.51 42.859 Q 55.274 42.859 55.837 43.191 Q 56.399 43.523 56.702 44.144 Q 57.004 44.766 57.004 45.597 L 57.004 49.662 L 57.693 49.662 Q 57.978 49.662 58.1 49.792 Q 58.222 49.922 58.222 50.233 Q 58.222 50.544 58.1 50.674 Q 57.978 50.804 57.693 50.804 L 54.972 50.804 Q 54.686 50.804 54.564 50.674 Q 54.442 50.544 54.442 50.233 Q 54.442 49.922 54.564 49.792 Q 54.686 49.662 54.972 49.662 L 55.744 49.662 L 55.744 45.723 Q 55.744 44.975 55.4 44.539 Q 55.056 44.102 54.384 44.102 Q 53.67 44.102 53.053 44.514 Q 52.435 44.925 52.066 45.647 Q 51.696 46.37 51.696 47.26 L 51.696 49.662 L 52.469 49.662 Q 52.754 49.662 52.876 49.792 Q 52.998 49.922 52.998 50.233 Q 52.998 50.544 52.876 50.674 Q 52.754 50.804 52.469 50.804 L 49.748 50.804 Q 49.462 50.804 49.34 50.674 Q 49.219 50.544 49.219 50.233 Q 49.219 49.922 49.34 49.792 Q 49.462 49.662 49.748 49.662 L 50.436 49.662 L 50.436 44.186 L 49.58 44.186 Q 49.294 44.186 49.172 44.056 Q 49.051 43.926 49.051 43.615 Q 49.051 43.304 49.172 43.174 Q 49.294 43.044 49.58 43.044 L 51.083 43.044 Q 51.369 43.044 51.49 43.174 Q 51.612 43.304 51.612 43.615 L 51.612 44.623 Q 52.166 43.766 52.91 43.313 Q 53.653 42.859 54.51 42.859 Z M 63.871 42.859 Q 65.022 42.859 65.946 43.38 Q 66.87 43.9 67.395 44.829 Q 67.919 45.757 67.919 46.924 Q 67.919 48.091 67.395 49.019 Q 66.87 49.947 65.946 50.468 Q 65.022 50.989 63.871 50.989 Q 62.721 50.989 61.797 50.468 Q 60.873 49.947 60.348 49.019 Q 59.823 48.091 59.823 46.924 Q 59.823 45.757 60.348 44.829 Q 60.873 43.9 61.797 43.38 Q 62.721 42.859 63.871 42.859 Z M 63.871 44.102 Q 63.057 44.102 62.439 44.459 Q 61.822 44.816 61.486 45.458 Q 61.15 46.101 61.15 46.924 Q 61.15 47.747 61.486 48.389 Q 61.822 49.032 62.439 49.389 Q 63.057 49.746 63.871 49.746 Q 64.686 49.746 65.303 49.389 Q 65.921 49.032 66.257 48.389 Q 66.593 47.747 66.593 46.924 Q 66.593 46.101 66.257 45.458 Q 65.921 44.816 65.303 44.459 Q 64.686 44.102 63.871 44.102 Z M 79.028 49.662 Q 79.314 49.662 79.435 49.792 Q 79.557 49.922 79.557 50.233 Q 79.557 50.544 79.435 50.674 Q 79.314 50.804 79.028 50.804 L 77.777 50.804 Q 77.491 50.804 77.369 50.674 Q 77.248 50.544 77.248 50.233 L 77.248 45.261 Q 77.248 44.682 77.059 44.392 Q 76.87 44.102 76.45 44.102 Q 76.055 44.102 75.719 44.467 Q 75.383 44.833 75.186 45.484 Q 74.988 46.134 74.988 46.966 L 74.988 49.662 L 75.467 49.662 Q 75.753 49.662 75.874 49.792 Q 75.996 49.922 75.996 50.233 Q 75.996 50.544 75.874 50.674 Q 75.753 50.804 75.467 50.804 L 74.258 50.804 Q 73.972 50.804 73.85 50.674 Q 73.729 50.544 73.729 50.233 L 73.729 45.261 Q 73.729 44.682 73.54 44.392 Q 73.351 44.102 72.931 44.102 Q 72.536 44.102 72.2 44.467 Q 71.864 44.833 71.667 45.484 Q 71.469 46.134 71.469 46.966 L 71.469 49.662 L 71.906 49.662 Q 72.192 49.662 72.314 49.792 Q 72.435 49.922 72.435 50.233 Q 72.435 50.544 72.314 50.674 Q 72.192 50.804 71.906 50.804 L 69.521 50.804 Q 69.235 50.804 69.114 50.674 Q 68.992 50.544 68.992 50.233 Q 68.992 49.922 69.114 49.792 Q 69.235 49.662 69.521 49.662 L 70.21 49.662 L 70.21 44.186 L 69.521 44.186 Q 69.235 44.186 69.114 44.056 Q 68.992 43.926 68.992 43.615 Q 68.992 43.304 69.114 43.174 Q 69.235 43.044 69.521 43.044 L 70.772 43.044 Q 71.058 43.044 71.18 43.174 Q 71.302 43.304 71.302 43.615 L 71.302 44.446 Q 71.663 43.657 72.167 43.258 Q 72.67 42.859 73.258 42.859 Q 73.829 42.859 74.258 43.245 Q 74.686 43.632 74.837 44.379 Q 75.585 42.859 76.769 42.859 Q 77.264 42.859 77.655 43.107 Q 78.045 43.355 78.276 43.863 Q 78.507 44.371 78.507 45.11 L 78.507 49.662 L 79.028 49.662 Z" transform="matrix(0.907153, -0.420801, 0.420801, 0.907153, 3.111513, 109.205707)" style="stroke: rgb(0, 0, 0); stroke-width: 0px;"/>
      <line transform="rotate(26.4425 49.8962 135.62)" stroke="#000" id="svg_8" y2="127.62041" x2="47.89613" y1="143.62041" x1="51.89613" fill="none"/>
      <line transform="rotate(26.4425 76.1869 116.494)" stroke="#000" id="svg_9" y2="95.39511" x2="93.56273" y1="137.59367" x1="58.81098" fill="none"/>
      <line transform="rotate(26.4425 76.1869 116.494)" stroke="#000" id="svg_11" y2="95.39511" x2="93.56273" y1="137.59367" x1="58.81098" fill="none"/>
      <line transform="rotate(26.4425 87.7773 131.445)" stroke="#000" id="svg_12" y2="112.15711" x2="103.28433" y1="150.73295" x1="72.27021" fill="none"/>
      <line transform="rotate(49.8033 56.9523 142.513)" stroke="#000" id="svg_13" y2="135.53154" x2="61.9012" y1="149.49508" x1="52.00337" fill="none"/>
      <line transform="rotate(26.4425 105.864 113.34)" stroke="#000" id="svg_14" y2="118.44719" x2="113.88019" y1="108.23385" x1="97.84699" fill="none"/>
      <path d="M 46.287 93.448 Q 47.866 93.448 48.656 94.154 Q 49.445 94.859 49.445 96.245 L 49.445 99.587 Q 49.445 100.251 49.999 100.251 L 50.293 100.251 Q 50.579 100.251 50.701 100.381 Q 50.822 100.511 50.822 100.822 Q 50.822 101.133 50.701 101.263 Q 50.579 101.393 50.293 101.393 L 49.756 101.393 Q 49.21 101.393 48.819 101.12 Q 48.429 100.847 48.311 100.318 Q 47.623 100.923 46.821 101.25 Q 46.018 101.578 45.12 101.578 Q 44.272 101.578 43.621 101.288 Q 42.97 100.998 42.6 100.444 Q 42.231 99.89 42.231 99.125 Q 42.231 97.798 43.18 97.164 Q 44.129 96.53 45.632 96.53 Q 46.968 96.53 48.185 96.959 L 48.185 96.245 Q 48.185 95.43 47.728 95.048 Q 47.27 94.666 46.254 94.666 Q 45.624 94.666 44.943 94.842 Q 44.263 95.019 43.65 95.329 Q 43.507 95.405 43.39 95.405 Q 43.113 95.405 42.928 95.002 Q 42.835 94.8 42.835 94.666 Q 42.835 94.372 43.146 94.212 Q 43.852 93.843 44.662 93.645 Q 45.473 93.448 46.287 93.448 Z M 45.641 97.714 Q 44.675 97.714 44.116 98.046 Q 43.558 98.378 43.558 99.1 Q 43.558 99.713 43.982 100.053 Q 44.406 100.394 45.17 100.394 Q 46.842 100.394 48.185 99.008 L 48.185 98.092 Q 47.614 97.908 46.959 97.811 Q 46.304 97.714 45.641 97.714 Z M 56.102 93.448 Q 56.926 93.448 57.623 93.818 Q 58.32 94.187 58.849 94.876 L 58.849 94.204 Q 58.849 93.893 58.971 93.763 Q 59.092 93.633 59.378 93.633 L 60.713 93.633 Q 60.999 93.633 61.121 93.763 Q 61.242 93.893 61.242 94.204 Q 61.242 94.515 61.121 94.645 Q 60.999 94.775 60.713 94.775 L 60.025 94.775 L 60.025 101.645 Q 60.025 102.644 59.6 103.362 Q 59.176 104.08 58.37 104.458 Q 57.564 104.836 56.43 104.836 Q 55.624 104.836 54.801 104.698 Q 53.978 104.559 53.264 104.299 Q 52.936 104.181 52.936 103.854 Q 52.936 103.719 53.003 103.518 Q 53.155 103.056 53.482 103.056 Q 53.575 103.056 53.667 103.089 Q 54.322 103.325 55.044 103.459 Q 55.767 103.593 56.43 103.593 Q 57.589 103.593 58.177 103.043 Q 58.765 102.493 58.765 101.536 L 58.765 99.848 Q 57.723 101.158 56.102 101.158 Q 55.061 101.158 54.238 100.692 Q 53.415 100.226 52.945 99.352 Q 52.474 98.479 52.474 97.303 Q 52.474 96.127 52.945 95.254 Q 53.415 94.38 54.238 93.914 Q 55.061 93.448 56.102 93.448 Z M 56.186 94.691 Q 55.439 94.691 54.902 95.023 Q 54.364 95.355 54.083 95.947 Q 53.801 96.539 53.801 97.303 Q 53.801 98.067 54.083 98.659 Q 54.364 99.251 54.902 99.583 Q 55.439 99.915 56.186 99.915 Q 56.934 99.915 57.518 99.604 Q 58.101 99.293 58.433 98.701 Q 58.765 98.109 58.765 97.303 Q 58.765 96.497 58.433 95.905 Q 58.101 95.313 57.518 95.002 Q 56.934 94.691 56.186 94.691 Z M 66.951 93.448 Q 68.169 93.448 69.029 93.939 Q 69.89 94.431 70.352 95.3 Q 70.814 96.169 70.881 97.303 Q 70.881 97.588 70.759 97.706 Q 70.638 97.824 70.352 97.824 L 64.272 97.824 Q 64.33 99.075 65.015 99.718 Q 65.699 100.36 66.951 100.36 Q 67.723 100.36 68.479 100.163 Q 69.235 99.965 69.806 99.638 Q 69.949 99.562 70.067 99.562 Q 70.361 99.562 70.545 100.007 Q 70.621 100.184 70.621 100.326 Q 70.621 100.662 70.251 100.847 Q 69.605 101.175 68.723 101.376 Q 67.841 101.578 66.951 101.578 Q 65.683 101.578 64.784 101.091 Q 63.885 100.604 63.415 99.688 Q 62.945 98.773 62.945 97.513 Q 62.945 96.312 63.457 95.388 Q 63.969 94.464 64.876 93.956 Q 65.783 93.448 66.951 93.448 Z M 66.951 94.666 Q 65.918 94.666 65.242 95.191 Q 64.566 95.716 64.356 96.648 L 69.487 96.648 Q 69.311 95.682 68.677 95.174 Q 68.043 94.666 66.951 94.666 Z" transform="matrix(0.89108, -0.453846, 0.453846, 0.89108, 112.151035, 61.808264)" style="stroke: rgb(0, 0, 0); stroke-width: 0px;"/>
      <line stroke="#000" id="svg_41" y2="156.17173" x2="35.91058" y1="143.49355" x1="48.06801" fill="none"/>
      <line transform="rotate(26.4425 176.572 134.61)" stroke="#000" id="svg_43" y2="126.61005" x2="174.5719" y1="142.61005" x1="178.5719" fill="none"/>
      <line transform="rotate(26.4425 202.863 115.484)" id="svg_44" y2="94.38475" x2="220.23851" y1="136.58331" x1="185.48675" stroke="#000" fill="none"/>
      <line transform="rotate(26.4425 202.863 115.484)" id="svg_45" y2="94.38475" x2="220.23851" y1="136.58331" x1="185.48675" stroke="#000" fill="none"/>
      <line transform="rotate(26.4425 214.453 130.435)" stroke="#000" id="svg_46" y2="111.14675" x2="229.9601" y1="149.72259" x1="198.94598" fill="none"/>
      <line transform="rotate(49.8033 183.628 141.503)" stroke="#000" id="svg_47" y2="134.52118" x2="188.57697" y1="148.48472" x1="178.67914" fill="none"/>
      <line transform="rotate(26.4425 232.539 112.331)" stroke="#000" id="svg_48" y2="117.43683" x2="240.55596" y1="107.22349" x1="224.52276" fill="none"/>
      <line stroke="#000" id="svg_50" y2="155.42452" x2="162.8495" y1="142.22004" x1="174.74378" fill="none"/>
    </g>
  </g>
</svg>