<?xml version="1.0" encoding="utf-8"?>
<svg viewBox="0 0 500 500" xmlns="http://www.w3.org/2000/svg">
  <rect x="69.434" y="5.409" width="139.239" height="30.68" style="stroke: rgb(0, 0, 0); fill: rgb(255, 255, 255);" transform="matrix(1, 0, 0, 1, 0, -3.552713678800501e-15)"/>
  <g transform="matrix(1, 0, 0, 1, 9.702460494623393, -20.258953523825582)">
    <path style="stroke: rgb(0, 0, 0); fill: rgb(255, 255, 255);" d="M 38.828 41.078 C 38.828 41.078 53.715 41.176 53.617 41.176 C 53.519 41.176 49.699 35.985 49.699 35.985"/>
    <path style="fill: rgb(216, 216, 216); stroke: rgb(0, 0, 0);" d="M 49.497 46.047 L 53.568 41.219"/>
  </g>
  <g transform="matrix(1, 0, 0, 1, 173.98187624575004, -20.59863706373926)">
    <path style="stroke: rgb(0, 0, 0); fill: rgb(255, 255, 255);" d="M 38.828 41.078 C 38.828 41.078 53.715 41.176 53.617 41.176 C 53.519 41.176 49.699 35.985 49.699 35.985"/>
    <path style="fill: rgb(216, 216, 216); stroke: rgb(0, 0, 0);" d="M 49.497 46.047 L 53.568 41.219"/>
  </g>
  <path d="M 80.14 16.665 Q 80.795 16.665 81.439 16.914 Q 81.673 17.002 81.673 17.237 Q 81.673 17.29 81.659 17.364 Q 81.59 17.642 81.415 17.642 Q 81.361 17.642 81.297 17.617 Q 80.677 17.378 80.14 17.378 Q 79.154 17.378 79.154 18.438 L 79.154 18.975 L 80.843 18.975 Q 81.009 18.975 81.08 19.051 Q 81.151 19.126 81.151 19.307 Q 81.151 19.488 81.08 19.563 Q 81.009 19.639 80.843 19.639 L 79.154 19.639 L 79.154 22.432 L 80.843 22.432 Q 81.009 22.432 81.08 22.508 Q 81.151 22.583 81.151 22.764 Q 81.151 22.945 81.08 23.02 Q 81.009 23.096 80.843 23.096 L 77.455 23.096 Q 77.289 23.096 77.218 23.02 Q 77.147 22.945 77.147 22.764 Q 77.147 22.583 77.218 22.508 Q 77.289 22.432 77.455 22.432 L 78.422 22.432 L 78.422 19.639 L 77.455 19.639 Q 77.289 19.639 77.218 19.563 Q 77.147 19.488 77.147 19.307 Q 77.147 19.126 77.218 19.051 Q 77.289 18.975 77.455 18.975 L 78.422 18.975 L 78.422 18.374 Q 78.422 17.569 78.873 17.117 Q 79.325 16.665 80.14 16.665 Z" style="fill: rgb(51, 51, 51);"/>
  <path d="M 85.241 18.477 Q 86.159 18.477 86.618 18.887 Q 87.077 19.297 87.077 20.103 L 87.077 22.046 Q 87.077 22.432 87.399 22.432 L 87.57 22.432 Q 87.736 22.432 87.807 22.508 Q 87.878 22.583 87.878 22.764 Q 87.878 22.945 87.807 23.02 Q 87.736 23.096 87.57 23.096 L 87.258 23.096 Q 86.94 23.096 86.713 22.937 Q 86.486 22.779 86.418 22.471 Q 86.018 22.823 85.551 23.013 Q 85.085 23.203 84.562 23.203 Q 84.069 23.203 83.691 23.035 Q 83.312 22.867 83.098 22.544 Q 82.883 22.222 82.883 21.778 Q 82.883 21.006 83.435 20.638 Q 83.986 20.269 84.86 20.269 Q 85.637 20.269 86.345 20.518 L 86.345 20.103 Q 86.345 19.629 86.079 19.407 Q 85.812 19.185 85.222 19.185 Q 84.855 19.185 84.46 19.287 Q 84.064 19.39 83.708 19.571 Q 83.625 19.615 83.557 19.615 Q 83.395 19.615 83.288 19.38 Q 83.234 19.263 83.234 19.185 Q 83.234 19.014 83.415 18.921 Q 83.825 18.706 84.296 18.592 Q 84.768 18.477 85.241 18.477 Z M 84.865 20.957 Q 84.304 20.957 83.979 21.15 Q 83.654 21.343 83.654 21.763 Q 83.654 22.119 83.901 22.317 Q 84.147 22.515 84.592 22.515 Q 85.563 22.515 86.345 21.709 L 86.345 21.177 Q 86.013 21.07 85.632 21.013 Q 85.251 20.957 84.865 20.957 Z" style="fill: rgb(51, 51, 51);"/>
  <path d="M 89.771 16.69 Q 89.937 16.69 90.008 16.765 Q 90.078 16.841 90.078 17.022 L 90.078 19.453 Q 90.396 18.98 90.813 18.728 Q 91.231 18.477 91.714 18.477 Q 92.158 18.477 92.486 18.67 Q 92.813 18.863 92.989 19.224 Q 93.164 19.585 93.164 20.069 L 93.164 22.432 L 93.565 22.432 Q 93.731 22.432 93.802 22.508 Q 93.872 22.583 93.872 22.764 Q 93.872 22.945 93.802 23.02 Q 93.731 23.096 93.565 23.096 L 91.983 23.096 Q 91.817 23.096 91.746 23.02 Q 91.675 22.945 91.675 22.764 Q 91.675 22.583 91.746 22.508 Q 91.817 22.432 91.983 22.432 L 92.432 22.432 L 92.432 20.142 Q 92.432 19.707 92.232 19.453 Q 92.032 19.2 91.641 19.2 Q 91.226 19.2 90.867 19.439 Q 90.508 19.678 90.293 20.098 Q 90.078 20.518 90.078 21.035 L 90.078 22.432 L 90.528 22.432 Q 90.694 22.432 90.764 22.508 Q 90.835 22.583 90.835 22.764 Q 90.835 22.945 90.764 23.02 Q 90.694 23.096 90.528 23.096 L 88.946 23.096 Q 88.78 23.096 88.709 23.02 Q 88.638 22.945 88.638 22.764 Q 88.638 22.583 88.709 22.508 Q 88.78 22.432 88.946 22.432 L 89.346 22.432 L 89.346 17.354 L 88.897 17.354 Q 88.731 17.354 88.66 17.278 Q 88.589 17.202 88.589 17.022 Q 88.589 16.841 88.66 16.765 Q 88.731 16.69 88.897 16.69 L 89.771 16.69 Z" style="fill: rgb(51, 51, 51);"/>
  <path d="M 98.712 18.477 Q 99.093 18.477 99.425 18.672 Q 99.62 18.789 99.62 18.975 Q 99.62 19.063 99.577 19.18 Q 99.474 19.458 99.293 19.458 Q 99.22 19.458 99.157 19.419 Q 98.917 19.287 98.644 19.287 Q 98.204 19.287 97.76 19.593 Q 97.316 19.898 97.03 20.406 Q 96.745 20.913 96.745 21.485 L 96.745 22.432 L 98.39 22.432 Q 98.556 22.432 98.627 22.508 Q 98.698 22.583 98.698 22.764 Q 98.698 22.945 98.627 23.02 Q 98.556 23.096 98.39 23.096 L 95.245 23.096 Q 95.079 23.096 95.009 23.02 Q 94.938 22.945 94.938 22.764 Q 94.938 22.583 95.009 22.508 Q 95.079 22.432 95.245 22.432 L 96.012 22.432 L 96.012 19.248 L 95.392 19.248 Q 95.226 19.248 95.155 19.173 Q 95.084 19.097 95.084 18.916 Q 95.084 18.736 95.155 18.66 Q 95.226 18.584 95.392 18.584 L 96.388 18.584 Q 96.554 18.584 96.625 18.66 Q 96.696 18.736 96.696 18.916 L 96.696 19.903 Q 96.93 19.473 97.262 19.151 Q 97.594 18.828 97.97 18.653 Q 98.346 18.477 98.712 18.477 Z" style="fill: rgb(51, 51, 51);"/>
  <path d="M 103.252 18.477 Q 103.96 18.477 104.46 18.763 Q 104.961 19.048 105.229 19.554 Q 105.498 20.059 105.537 20.718 Q 105.537 20.884 105.466 20.952 Q 105.395 21.021 105.229 21.021 L 101.694 21.021 Q 101.728 21.748 102.126 22.122 Q 102.524 22.495 103.252 22.495 Q 103.701 22.495 104.14 22.381 Q 104.58 22.266 104.912 22.075 Q 104.995 22.032 105.063 22.032 Q 105.234 22.032 105.342 22.29 Q 105.385 22.393 105.385 22.476 Q 105.385 22.671 105.171 22.779 Q 104.795 22.969 104.282 23.086 Q 103.769 23.203 103.252 23.203 Q 102.514 23.203 101.992 22.92 Q 101.469 22.637 101.196 22.105 Q 100.923 21.573 100.923 20.84 Q 100.923 20.142 101.22 19.605 Q 101.518 19.068 102.046 18.772 Q 102.573 18.477 103.252 18.477 Z M 103.252 19.185 Q 102.651 19.185 102.258 19.49 Q 101.865 19.795 101.743 20.337 L 104.726 20.337 Q 104.624 19.776 104.255 19.48 Q 103.886 19.185 103.252 19.185 Z" style="fill: rgb(51, 51, 51);"/>
  <path d="M 109.749 18.477 Q 110.193 18.477 110.521 18.67 Q 110.848 18.863 111.023 19.224 Q 111.199 19.585 111.199 20.069 L 111.199 22.432 L 111.6 22.432 Q 111.766 22.432 111.836 22.508 Q 111.907 22.583 111.907 22.764 Q 111.907 22.945 111.836 23.02 Q 111.766 23.096 111.6 23.096 L 110.018 23.096 Q 109.852 23.096 109.781 23.02 Q 109.71 22.945 109.71 22.764 Q 109.71 22.583 109.781 22.508 Q 109.852 22.432 110.018 22.432 L 110.467 22.432 L 110.467 20.142 Q 110.467 19.707 110.267 19.453 Q 110.066 19.2 109.676 19.2 Q 109.261 19.2 108.902 19.439 Q 108.543 19.678 108.328 20.098 Q 108.113 20.518 108.113 21.035 L 108.113 22.432 L 108.563 22.432 Q 108.729 22.432 108.799 22.508 Q 108.87 22.583 108.87 22.764 Q 108.87 22.945 108.799 23.02 Q 108.729 23.096 108.563 23.096 L 106.981 23.096 Q 106.815 23.096 106.744 23.02 Q 106.673 22.945 106.673 22.764 Q 106.673 22.583 106.744 22.508 Q 106.815 22.432 106.981 22.432 L 107.381 22.432 L 107.381 19.248 L 106.883 19.248 Q 106.717 19.248 106.646 19.173 Q 106.575 19.097 106.575 18.916 Q 106.575 18.736 106.646 18.66 Q 106.717 18.584 106.883 18.584 L 107.757 18.584 Q 107.923 18.584 107.994 18.66 Q 108.065 18.736 108.065 18.916 L 108.065 19.502 Q 108.387 19.004 108.819 18.741 Q 109.251 18.477 109.749 18.477 Z" style="fill: rgb(51, 51, 51);"/>
  <path d="M 113.764 16.69 Q 113.93 16.69 114.001 16.765 Q 114.071 16.841 114.071 17.022 L 114.071 19.453 Q 114.389 18.98 114.806 18.728 Q 115.224 18.477 115.707 18.477 Q 116.152 18.477 116.479 18.67 Q 116.806 18.863 116.982 19.224 Q 117.157 19.585 117.157 20.069 L 117.157 22.432 L 117.558 22.432 Q 117.724 22.432 117.795 22.508 Q 117.865 22.583 117.865 22.764 Q 117.865 22.945 117.795 23.02 Q 117.724 23.096 117.558 23.096 L 115.976 23.096 Q 115.81 23.096 115.739 23.02 Q 115.668 22.945 115.668 22.764 Q 115.668 22.583 115.739 22.508 Q 115.81 22.432 115.976 22.432 L 116.425 22.432 L 116.425 20.142 Q 116.425 19.707 116.225 19.453 Q 116.025 19.2 115.634 19.2 Q 115.219 19.2 114.86 19.439 Q 114.501 19.678 114.286 20.098 Q 114.071 20.518 114.071 21.035 L 114.071 22.432 L 114.521 22.432 Q 114.687 22.432 114.757 22.508 Q 114.828 22.583 114.828 22.764 Q 114.828 22.945 114.757 23.02 Q 114.687 23.096 114.521 23.096 L 112.939 23.096 Q 112.773 23.096 112.702 23.02 Q 112.631 22.945 112.631 22.764 Q 112.631 22.583 112.702 22.508 Q 112.773 22.432 112.939 22.432 L 113.339 22.432 L 113.339 17.354 L 112.89 17.354 Q 112.724 17.354 112.653 17.278 Q 112.582 17.202 112.582 17.022 Q 112.582 16.841 112.653 16.765 Q 112.724 16.69 112.89 16.69 L 113.764 16.69 Z" style="fill: rgb(51, 51, 51);"/>
  <path d="M 121.238 18.477 Q 121.946 18.477 122.446 18.763 Q 122.947 19.048 123.215 19.554 Q 123.484 20.059 123.523 20.718 Q 123.523 20.884 123.452 20.952 Q 123.381 21.021 123.215 21.021 L 119.68 21.021 Q 119.714 21.748 120.112 22.122 Q 120.51 22.495 121.238 22.495 Q 121.687 22.495 122.126 22.381 Q 122.566 22.266 122.898 22.075 Q 122.981 22.032 123.049 22.032 Q 123.22 22.032 123.328 22.29 Q 123.372 22.393 123.372 22.476 Q 123.372 22.671 123.157 22.779 Q 122.781 22.969 122.268 23.086 Q 121.755 23.203 121.238 23.203 Q 120.5 23.203 119.978 22.92 Q 119.456 22.637 119.182 22.105 Q 118.909 21.573 118.909 20.84 Q 118.909 20.142 119.207 19.605 Q 119.504 19.068 120.032 18.772 Q 120.559 18.477 121.238 18.477 Z M 121.238 19.185 Q 120.637 19.185 120.244 19.49 Q 119.851 19.795 119.729 20.337 L 122.712 20.337 Q 122.61 19.776 122.241 19.48 Q 121.873 19.185 121.238 19.185 Z" style="fill: rgb(51, 51, 51);"/>
  <path d="M 127.377 18.584 Q 127.543 18.584 127.613 18.66 Q 127.684 18.736 127.684 18.916 L 127.684 22.432 L 129.252 22.432 Q 129.418 22.432 129.488 22.508 Q 129.559 22.583 129.559 22.764 Q 129.559 22.945 129.488 23.02 Q 129.418 23.096 129.252 23.096 L 125.423 23.096 Q 125.257 23.096 125.187 23.02 Q 125.116 22.945 125.116 22.764 Q 125.116 22.583 125.187 22.508 Q 125.257 22.432 125.423 22.432 L 126.952 22.432 L 126.952 19.248 L 125.716 19.248 Q 125.55 19.248 125.48 19.173 Q 125.409 19.097 125.409 18.916 Q 125.409 18.736 125.48 18.66 Q 125.55 18.584 125.716 18.584 L 127.377 18.584 Z M 127.22 16.441 Q 127.489 16.441 127.587 16.512 Q 127.684 16.582 127.684 16.758 L 127.684 17.393 Q 127.684 17.569 127.587 17.639 Q 127.489 17.71 127.22 17.71 Q 126.952 17.71 126.854 17.639 Q 126.756 17.569 126.756 17.393 L 126.756 16.758 Q 126.756 16.582 126.854 16.512 Q 126.952 16.441 127.22 16.441 Z" style="fill: rgb(51, 51, 51);"/>
  <path d="M 132.429 17.193 Q 132.629 17.193 132.712 17.266 Q 132.795 17.339 132.795 17.51 L 132.795 18.975 L 134.802 18.975 Q 134.968 18.975 135.039 19.051 Q 135.109 19.126 135.109 19.307 Q 135.109 19.488 135.039 19.563 Q 134.968 19.639 134.802 19.639 L 132.795 19.639 L 132.795 21.416 Q 132.795 21.973 132.988 22.232 Q 133.181 22.491 133.659 22.491 Q 133.986 22.491 134.348 22.359 Q 134.709 22.227 135.046 22.007 Q 135.114 21.958 135.197 21.958 Q 135.363 21.958 135.48 22.183 Q 135.544 22.31 135.544 22.403 Q 135.544 22.559 135.383 22.657 Q 135.002 22.896 134.533 23.05 Q 134.064 23.203 133.659 23.203 Q 132.829 23.203 132.446 22.771 Q 132.062 22.339 132.062 21.48 L 132.062 19.639 L 131.071 19.639 Q 130.905 19.639 130.834 19.563 Q 130.764 19.488 130.764 19.307 Q 130.764 19.126 130.834 19.051 Q 130.905 18.975 131.071 18.975 L 132.062 18.975 L 132.062 17.51 Q 132.062 17.339 132.145 17.266 Q 132.228 17.193 132.429 17.193 Z" style="fill: rgb(51, 51, 51);"/>
  <path d="M 142.202 24.326 Q 142.261 24.326 142.288 24.39 Q 142.315 24.453 142.315 24.659 Q 142.315 24.864 142.288 24.927 Q 142.261 24.991 142.202 24.991 L 136.158 24.991 Q 136.099 24.991 136.072 24.927 Q 136.045 24.864 136.045 24.659 Q 136.045 24.453 136.072 24.39 Q 136.099 24.326 136.158 24.326 L 142.202 24.326 Z" style="fill: rgb(51, 51, 51);"/>
  <path d="M 145.231 18.477 Q 145.939 18.477 146.439 18.763 Q 146.94 19.048 147.208 19.554 Q 147.477 20.059 147.516 20.718 Q 147.516 20.884 147.445 20.952 Q 147.374 21.021 147.208 21.021 L 143.673 21.021 Q 143.707 21.748 144.105 22.122 Q 144.503 22.495 145.231 22.495 Q 145.68 22.495 146.12 22.381 Q 146.559 22.266 146.891 22.075 Q 146.974 22.032 147.042 22.032 Q 147.213 22.032 147.321 22.29 Q 147.365 22.393 147.365 22.476 Q 147.365 22.671 147.15 22.779 Q 146.774 22.969 146.261 23.086 Q 145.748 23.203 145.231 23.203 Q 144.494 23.203 143.971 22.92 Q 143.449 22.637 143.175 22.105 Q 142.902 21.573 142.902 20.84 Q 142.902 20.142 143.2 19.605 Q 143.497 19.068 144.025 18.772 Q 144.552 18.477 145.231 18.477 Z M 145.231 19.185 Q 144.63 19.185 144.237 19.49 Q 143.844 19.795 143.722 20.337 L 146.705 20.337 Q 146.603 19.776 146.234 19.48 Q 145.866 19.185 145.231 19.185 Z" style="fill: rgb(51, 51, 51);"/>
  <path d="M 151.728 18.477 Q 152.173 18.477 152.5 18.67 Q 152.827 18.863 153.003 19.224 Q 153.178 19.585 153.178 20.069 L 153.178 22.432 L 153.579 22.432 Q 153.745 22.432 153.816 22.508 Q 153.886 22.583 153.886 22.764 Q 153.886 22.945 153.816 23.02 Q 153.745 23.096 153.579 23.096 L 151.997 23.096 Q 151.831 23.096 151.76 23.02 Q 151.689 22.945 151.689 22.764 Q 151.689 22.583 151.76 22.508 Q 151.831 22.432 151.997 22.432 L 152.446 22.432 L 152.446 20.142 Q 152.446 19.707 152.246 19.453 Q 152.046 19.2 151.655 19.2 Q 151.24 19.2 150.881 19.439 Q 150.522 19.678 150.307 20.098 Q 150.093 20.518 150.093 21.035 L 150.093 22.432 L 150.542 22.432 Q 150.708 22.432 150.779 22.508 Q 150.849 22.583 150.849 22.764 Q 150.849 22.945 150.779 23.02 Q 150.708 23.096 150.542 23.096 L 148.96 23.096 Q 148.794 23.096 148.723 23.02 Q 148.652 22.945 148.652 22.764 Q 148.652 22.583 148.723 22.508 Q 148.794 22.432 148.96 22.432 L 149.36 22.432 L 149.36 19.248 L 148.862 19.248 Q 148.696 19.248 148.625 19.173 Q 148.554 19.097 148.554 18.916 Q 148.554 18.736 148.625 18.66 Q 148.696 18.584 148.862 18.584 L 149.736 18.584 Q 149.902 18.584 149.973 18.66 Q 150.044 18.736 150.044 18.916 L 150.044 19.502 Q 150.366 19.004 150.798 18.741 Q 151.23 18.477 151.728 18.477 Z" style="fill: rgb(51, 51, 51);"/>
  <path d="M 160.189 24.326 Q 160.247 24.326 160.274 24.39 Q 160.301 24.453 160.301 24.659 Q 160.301 24.864 160.274 24.927 Q 160.247 24.991 160.189 24.991 L 154.144 24.991 Q 154.085 24.991 154.058 24.927 Q 154.031 24.864 154.031 24.659 Q 154.031 24.453 154.058 24.39 Q 154.085 24.326 154.144 24.326 L 160.189 24.326 Z" style="fill: rgb(51, 51, 51);"/>
  <path d="M 164.931 18.477 Q 165.131 18.477 165.214 18.55 Q 165.297 18.623 165.297 18.794 L 165.297 20.21 Q 165.297 20.381 165.214 20.454 Q 165.131 20.528 164.931 20.528 Q 164.731 20.528 164.648 20.454 Q 164.565 20.381 164.565 20.21 Q 164.565 19.912 164.408 19.683 Q 164.252 19.453 163.942 19.326 Q 163.632 19.2 163.197 19.2 Q 162.729 19.2 162.358 19.409 Q 161.986 19.619 161.777 19.995 Q 161.567 20.371 161.567 20.84 Q 161.567 21.314 161.764 21.687 Q 161.962 22.061 162.321 22.271 Q 162.68 22.481 163.149 22.481 Q 163.598 22.481 164.02 22.342 Q 164.443 22.202 164.789 21.939 Q 164.892 21.861 164.98 21.861 Q 165.121 21.861 165.243 22.061 Q 165.317 22.183 165.317 22.295 Q 165.317 22.466 165.16 22.578 Q 164.77 22.871 164.237 23.037 Q 163.705 23.203 163.149 23.203 Q 162.45 23.203 161.916 22.896 Q 161.381 22.588 161.088 22.051 Q 160.795 21.514 160.795 20.84 Q 160.795 20.166 161.093 19.629 Q 161.391 19.092 161.925 18.784 Q 162.46 18.477 163.149 18.477 Q 163.583 18.477 163.947 18.636 Q 164.311 18.794 164.565 19.087 L 164.565 18.794 Q 164.565 18.623 164.648 18.55 Q 164.731 18.477 164.931 18.477 Z" style="fill: rgb(51, 51, 51);"/>
  <path d="M 169.207 18.477 Q 169.915 18.477 170.415 18.763 Q 170.916 19.048 171.184 19.554 Q 171.453 20.059 171.492 20.718 Q 171.492 20.884 171.421 20.952 Q 171.35 21.021 171.184 21.021 L 167.649 21.021 Q 167.683 21.748 168.081 22.122 Q 168.479 22.495 169.207 22.495 Q 169.656 22.495 170.095 22.381 Q 170.535 22.266 170.867 22.075 Q 170.95 22.032 171.018 22.032 Q 171.189 22.032 171.296 22.29 Q 171.34 22.393 171.34 22.476 Q 171.34 22.671 171.126 22.779 Q 170.75 22.969 170.237 23.086 Q 169.724 23.203 169.207 23.203 Q 168.469 23.203 167.947 22.92 Q 167.424 22.637 167.151 22.105 Q 166.877 21.573 166.877 20.84 Q 166.877 20.142 167.175 19.605 Q 167.473 19.068 168.001 18.772 Q 168.528 18.477 169.207 18.477 Z M 169.207 19.185 Q 168.606 19.185 168.213 19.49 Q 167.82 19.795 167.698 20.337 L 170.681 20.337 Q 170.579 19.776 170.21 19.48 Q 169.841 19.185 169.207 19.185 Z" style="fill: rgb(51, 51, 51);"/>
  <path d="M 175.297 16.69 Q 175.463 16.69 175.533 16.765 Q 175.604 16.841 175.604 17.022 L 175.604 22.432 L 177.172 22.432 Q 177.338 22.432 177.408 22.508 Q 177.479 22.583 177.479 22.764 Q 177.479 22.945 177.408 23.02 Q 177.338 23.096 177.172 23.096 L 173.343 23.096 Q 173.177 23.096 173.107 23.02 Q 173.036 22.945 173.036 22.764 Q 173.036 22.583 173.107 22.508 Q 173.177 22.432 173.343 22.432 L 174.872 22.432 L 174.872 17.354 L 173.539 17.354 Q 173.373 17.354 173.302 17.278 Q 173.231 17.202 173.231 17.022 Q 173.231 16.841 173.302 16.765 Q 173.373 16.69 173.539 16.69 L 175.297 16.69 Z" style="fill: rgb(51, 51, 51);"/>
  <path d="M 182.697 18.477 Q 182.897 18.477 182.98 18.55 Q 183.063 18.623 183.063 18.794 L 183.063 19.722 Q 183.063 19.893 182.98 19.966 Q 182.897 20.039 182.697 20.039 Q 182.531 20.039 182.463 19.912 Q 182.253 19.512 181.852 19.348 Q 181.452 19.185 180.837 19.185 Q 180.363 19.185 180.097 19.353 Q 179.831 19.522 179.831 19.825 Q 179.831 19.981 179.931 20.078 Q 180.031 20.176 180.227 20.24 Q 180.388 20.293 180.6 20.323 Q 180.812 20.352 181.149 20.386 Q 181.623 20.44 181.914 20.486 Q 182.204 20.533 182.463 20.625 Q 182.853 20.767 183.071 21.035 Q 183.288 21.304 183.288 21.743 Q 183.288 22.183 183.066 22.513 Q 182.844 22.842 182.416 23.023 Q 181.989 23.203 181.394 23.203 Q 180.866 23.203 180.466 23.057 Q 180.065 22.91 179.768 22.613 L 179.768 22.886 Q 179.768 23.057 179.685 23.13 Q 179.602 23.203 179.401 23.203 Q 179.201 23.203 179.118 23.13 Q 179.035 23.057 179.035 22.886 L 179.035 21.714 Q 179.035 21.543 179.118 21.47 Q 179.201 21.397 179.401 21.397 Q 179.504 21.397 179.562 21.443 Q 179.621 21.49 179.665 21.597 Q 179.841 22.066 180.251 22.281 Q 180.661 22.495 181.345 22.495 Q 181.911 22.495 182.214 22.29 Q 182.517 22.085 182.517 21.743 Q 182.517 21.577 182.409 21.47 Q 182.302 21.363 182.102 21.294 Q 181.931 21.241 181.708 21.204 Q 181.486 21.167 181.144 21.133 Q 180.686 21.084 180.378 21.031 Q 180.07 20.977 179.811 20.874 Q 179.455 20.733 179.257 20.481 Q 179.06 20.23 179.06 19.825 Q 179.06 19.4 179.282 19.095 Q 179.504 18.789 179.897 18.633 Q 180.29 18.477 180.788 18.477 Q 181.262 18.477 181.655 18.618 Q 182.048 18.76 182.331 19.014 L 182.331 18.794 Q 182.331 18.623 182.414 18.55 Q 182.497 18.477 182.697 18.477 Z" style="fill: rgb(51, 51, 51);"/>
  <path d="M 187.324 18.584 Q 187.491 18.584 187.561 18.66 Q 187.632 18.736 187.632 18.916 L 187.632 22.432 L 189.199 22.432 Q 189.366 22.432 189.436 22.508 Q 189.507 22.583 189.507 22.764 Q 189.507 22.945 189.436 23.02 Q 189.366 23.096 189.199 23.096 L 185.371 23.096 Q 185.205 23.096 185.135 23.02 Q 185.064 22.945 185.064 22.764 Q 185.064 22.583 185.135 22.508 Q 185.205 22.432 185.371 22.432 L 186.9 22.432 L 186.9 19.248 L 185.664 19.248 Q 185.498 19.248 185.428 19.173 Q 185.357 19.097 185.357 18.916 Q 185.357 18.736 185.428 18.66 Q 185.498 18.584 185.664 18.584 L 187.324 18.584 Z M 187.168 16.441 Q 187.437 16.441 187.534 16.512 Q 187.632 16.582 187.632 16.758 L 187.632 17.393 Q 187.632 17.569 187.534 17.639 Q 187.437 17.71 187.168 17.71 Q 186.9 17.71 186.802 17.639 Q 186.704 17.569 186.704 17.393 L 186.704 16.758 Q 186.704 16.582 186.802 16.512 Q 186.9 16.441 187.168 16.441 Z" style="fill: rgb(51, 51, 51);"/>
  <path d="M 194.728 18.584 Q 194.894 18.584 194.965 18.66 Q 195.036 18.736 195.036 18.916 L 195.036 22.432 L 195.436 22.432 Q 195.602 22.432 195.673 22.508 Q 195.744 22.583 195.744 22.764 Q 195.744 22.945 195.673 23.02 Q 195.602 23.096 195.436 23.096 L 194.66 23.096 Q 194.494 23.096 194.423 23.023 Q 194.352 22.95 194.352 22.769 L 194.352 22.178 Q 194.03 22.676 193.598 22.94 Q 193.165 23.203 192.667 23.203 Q 192.223 23.203 191.896 23.011 Q 191.569 22.818 191.393 22.456 Q 191.217 22.095 191.217 21.612 L 191.217 19.248 L 190.817 19.248 Q 190.651 19.248 190.58 19.173 Q 190.509 19.097 190.509 18.916 Q 190.509 18.736 190.58 18.66 Q 190.651 18.584 190.817 18.584 L 191.642 18.584 Q 191.808 18.584 191.879 18.66 Q 191.95 18.736 191.95 18.916 L 191.95 21.538 Q 191.95 21.973 192.15 22.227 Q 192.35 22.481 192.741 22.481 Q 193.156 22.481 193.515 22.242 Q 193.873 22.002 194.088 21.582 Q 194.303 21.162 194.303 20.645 L 194.303 19.248 L 193.61 19.248 Q 193.444 19.248 193.373 19.173 Q 193.302 19.097 193.302 18.916 Q 193.302 18.736 193.373 18.66 Q 193.444 18.584 193.61 18.584 L 194.728 18.584 Z" style="fill: rgb(51, 51, 51);"/>
  <path d="M 200.683 18.477 Q 200.884 18.477 200.967 18.55 Q 201.05 18.623 201.05 18.794 L 201.05 19.722 Q 201.05 19.893 200.967 19.966 Q 200.884 20.039 200.683 20.039 Q 200.517 20.039 200.449 19.912 Q 200.239 19.512 199.839 19.348 Q 199.438 19.185 198.823 19.185 Q 198.349 19.185 198.083 19.353 Q 197.817 19.522 197.817 19.825 Q 197.817 19.981 197.917 20.078 Q 198.017 20.176 198.213 20.24 Q 198.374 20.293 198.586 20.323 Q 198.799 20.352 199.135 20.386 Q 199.609 20.44 199.9 20.486 Q 200.19 20.533 200.449 20.625 Q 200.84 20.767 201.057 21.035 Q 201.274 21.304 201.274 21.743 Q 201.274 22.183 201.052 22.513 Q 200.83 22.842 200.403 23.023 Q 199.975 23.203 199.38 23.203 Q 198.852 23.203 198.452 23.057 Q 198.051 22.91 197.754 22.613 L 197.754 22.886 Q 197.754 23.057 197.671 23.13 Q 197.588 23.203 197.387 23.203 Q 197.187 23.203 197.104 23.13 Q 197.021 23.057 197.021 22.886 L 197.021 21.714 Q 197.021 21.543 197.104 21.47 Q 197.187 21.397 197.387 21.397 Q 197.49 21.397 197.549 21.443 Q 197.607 21.49 197.651 21.597 Q 197.827 22.066 198.237 22.281 Q 198.647 22.495 199.331 22.495 Q 199.897 22.495 200.2 22.29 Q 200.503 22.085 200.503 21.743 Q 200.503 21.577 200.395 21.47 Q 200.288 21.363 200.088 21.294 Q 199.917 21.241 199.695 21.204 Q 199.472 21.167 199.131 21.133 Q 198.672 21.084 198.364 21.031 Q 198.056 20.977 197.798 20.874 Q 197.441 20.733 197.243 20.481 Q 197.046 20.23 197.046 19.825 Q 197.046 19.4 197.268 19.095 Q 197.49 18.789 197.883 18.633 Q 198.276 18.477 198.774 18.477 Q 199.248 18.477 199.641 18.618 Q 200.034 18.76 200.317 19.014 L 200.317 18.794 Q 200.317 18.623 200.4 18.55 Q 200.483 18.477 200.683 18.477 Z" style="fill: rgb(51, 51, 51);"/>
  <path style="fill: rgb(51, 51, 51);"/>
  <path d="M 4.15 16.789 Q 4.759 16.789 5.254 17.044 Q 5.749 17.299 6.031 17.744 Q 6.312 18.189 6.312 18.723 Q 6.312 19.197 6.042 19.572 Q 5.773 19.947 5.339 20.182 Q 5.884 20.428 6.212 20.867 Q 6.54 21.307 6.54 21.881 Q 6.54 22.484 6.23 22.968 Q 5.919 23.451 5.374 23.727 Q 4.829 24.002 4.15 24.002 Q 3.47 24.002 2.925 23.727 Q 2.38 23.451 2.07 22.968 Q 1.759 22.484 1.759 21.881 Q 1.759 21.307 2.087 20.867 Q 2.415 20.428 2.954 20.182 Q 2.521 19.947 2.254 19.572 Q 1.988 19.197 1.988 18.723 Q 1.988 18.189 2.269 17.744 Q 2.55 17.299 3.045 17.044 Q 3.54 16.789 4.15 16.789 Z M 4.15 17.656 Q 3.786 17.656 3.502 17.788 Q 3.218 17.92 3.054 18.166 Q 2.89 18.412 2.89 18.74 Q 2.89 19.039 3.054 19.285 Q 3.218 19.531 3.508 19.672 Q 3.798 19.812 4.15 19.812 Q 4.501 19.812 4.791 19.672 Q 5.081 19.531 5.245 19.285 Q 5.409 19.039 5.409 18.74 Q 5.409 18.412 5.245 18.166 Q 5.081 17.92 4.797 17.788 Q 4.513 17.656 4.15 17.656 Z M 4.15 20.627 Q 3.722 20.627 3.394 20.785 Q 3.066 20.943 2.881 21.227 Q 2.697 21.512 2.697 21.875 Q 2.697 22.238 2.881 22.525 Q 3.066 22.812 3.394 22.974 Q 3.722 23.135 4.15 23.135 Q 4.577 23.135 4.906 22.974 Q 5.234 22.812 5.418 22.525 Q 5.603 22.238 5.603 21.875 Q 5.603 21.512 5.418 21.227 Q 5.234 20.943 4.906 20.785 Q 4.577 20.627 4.15 20.627 Z" style="fill: rgb(51, 51, 51);"/>
  <path d="M 11.337 16.789 Q 12.087 16.789 12.653 17.237 Q 13.218 17.685 13.526 18.503 Q 13.833 19.32 13.833 20.398 Q 13.833 21.477 13.526 22.291 Q 13.218 23.105 12.656 23.554 Q 12.093 24.002 11.337 24.002 Q 10.581 24.002 10.019 23.554 Q 9.456 23.105 9.149 22.291 Q 8.841 21.477 8.841 20.398 Q 8.841 19.32 9.149 18.503 Q 9.456 17.685 10.022 17.237 Q 10.587 16.789 11.337 16.789 Z M 11.337 17.656 Q 10.874 17.656 10.52 17.981 Q 10.165 18.307 9.966 18.925 Q 9.767 19.543 9.767 20.398 Q 9.767 21.254 9.966 21.872 Q 10.165 22.49 10.52 22.812 Q 10.874 23.135 11.337 23.135 Q 11.8 23.135 12.155 22.812 Q 12.509 22.49 12.708 21.872 Q 12.907 21.254 12.907 20.398 Q 12.907 19.543 12.708 18.925 Q 12.509 18.307 12.155 17.981 Q 11.8 17.656 11.337 17.656 Z" style="fill: rgb(51, 51, 51);"/>
  <path d="M 18.525 22.115 Q 18.947 22.115 19.131 22.2 Q 19.316 22.285 19.316 22.484 L 19.316 23.562 Q 19.316 23.762 19.131 23.847 Q 18.947 23.932 18.525 23.932 Q 18.103 23.932 17.918 23.847 Q 17.734 23.762 17.734 23.562 L 17.734 22.484 Q 17.734 22.285 17.918 22.2 Q 18.103 22.115 18.525 22.115 Z" style="fill: rgb(51, 51, 51);"/>
  <path d="M 27.822 23.076 Q 28.021 23.076 28.106 23.167 Q 28.191 23.258 28.191 23.475 Q 28.191 23.691 28.106 23.782 Q 28.021 23.873 27.822 23.873 L 23.872 23.873 Q 23.673 23.873 23.588 23.782 Q 23.503 23.691 23.503 23.475 Q 23.503 23.258 23.588 23.167 Q 23.673 23.076 23.872 23.076 L 25.448 23.076 L 25.448 18.049 L 23.99 18.957 Q 23.89 19.016 23.808 19.016 Q 23.62 19.016 23.486 18.775 Q 23.404 18.635 23.404 18.506 Q 23.404 18.307 23.585 18.201 L 25.794 16.842 Q 25.911 16.771 26.029 16.771 Q 26.157 16.771 26.242 16.856 Q 26.327 16.941 26.327 17.094 L 26.327 23.076 L 27.822 23.076 Z" style="fill: rgb(51, 51, 51);"/>
  <path d="M 32.7 16.789 Q 33.38 16.789 33.893 17.032 Q 34.406 17.275 34.687 17.738 Q 34.968 18.201 34.968 18.84 Q 34.968 19.437 34.672 19.938 Q 34.376 20.439 33.749 21.078 L 31.781 23.076 L 34.323 23.076 L 34.323 22.338 Q 34.323 22.133 34.423 22.045 Q 34.523 21.957 34.763 21.957 Q 35.003 21.957 35.103 22.045 Q 35.202 22.133 35.202 22.338 L 35.202 23.475 Q 35.202 23.691 35.117 23.782 Q 35.032 23.873 34.833 23.873 L 30.767 23.873 Q 30.568 23.873 30.483 23.782 Q 30.398 23.691 30.398 23.475 Q 30.398 23.252 30.486 23.158 L 33.064 20.545 Q 33.603 19.994 33.823 19.628 Q 34.042 19.262 34.042 18.84 Q 34.042 18.295 33.694 17.976 Q 33.345 17.656 32.706 17.656 Q 32.062 17.656 31.493 17.984 L 31.493 18.629 Q 31.493 18.834 31.394 18.922 Q 31.294 19.01 31.054 19.01 Q 30.814 19.01 30.714 18.922 Q 30.615 18.834 30.615 18.629 L 30.615 17.768 Q 30.615 17.539 30.749 17.445 Q 31.177 17.135 31.675 16.962 Q 32.173 16.789 32.7 16.789 Z" style="fill: rgb(51, 51, 51);"/>
  <path d="M 39.947 16.789 Q 40.62 16.789 41.124 17.026 Q 41.628 17.264 41.904 17.7 Q 42.179 18.137 42.179 18.723 Q 42.179 19.227 41.945 19.593 Q 41.71 19.959 41.282 20.176 Q 41.816 20.398 42.112 20.826 Q 42.407 21.254 42.407 21.852 Q 42.407 22.49 42.123 22.977 Q 41.839 23.463 41.294 23.732 Q 40.749 24.002 39.993 24.002 Q 39.419 24.002 38.833 23.803 Q 38.247 23.603 37.784 23.264 Q 37.609 23.135 37.609 22.971 Q 37.609 22.853 37.708 22.684 Q 37.861 22.437 38.048 22.437 Q 38.142 22.437 38.247 22.514 Q 38.634 22.801 39.085 22.968 Q 39.536 23.135 39.993 23.135 Q 40.72 23.135 41.101 22.792 Q 41.482 22.449 41.482 21.852 Q 41.482 21.248 41.098 20.935 Q 40.714 20.621 40.023 20.621 L 39.595 20.621 Q 39.396 20.621 39.311 20.53 Q 39.226 20.439 39.226 20.223 Q 39.226 20.006 39.311 19.915 Q 39.396 19.824 39.595 19.824 L 39.917 19.824 Q 40.585 19.824 40.931 19.543 Q 41.277 19.262 41.277 18.723 Q 41.277 18.225 40.931 17.94 Q 40.585 17.656 39.952 17.656 Q 39.273 17.656 38.798 17.885 L 38.798 18.277 Q 38.798 18.482 38.698 18.57 Q 38.599 18.658 38.359 18.658 Q 38.118 18.658 38.019 18.57 Q 37.919 18.482 37.919 18.277 L 37.919 17.639 Q 37.919 17.51 37.957 17.434 Q 37.995 17.357 38.077 17.305 Q 38.915 16.789 39.947 16.789 Z" style="fill: rgb(51, 51, 51);"/>
  <path d="M 236.969 16.923 Q 237.649 16.923 238.162 17.166 Q 238.675 17.409 238.956 17.872 Q 239.237 18.335 239.237 18.974 Q 239.237 19.571 238.941 20.072 Q 238.645 20.573 238.018 21.212 L 236.05 23.21 L 238.592 23.21 L 238.592 22.472 Q 238.592 22.267 238.692 22.179 Q 238.792 22.091 239.032 22.091 Q 239.272 22.091 239.372 22.179 Q 239.471 22.267 239.471 22.472 L 239.471 23.609 Q 239.471 23.825 239.386 23.916 Q 239.301 24.007 239.102 24.007 L 235.036 24.007 Q 234.837 24.007 234.752 23.916 Q 234.667 23.825 234.667 23.609 Q 234.667 23.386 234.755 23.292 L 237.333 20.679 Q 237.872 20.128 238.092 19.762 Q 238.311 19.396 238.311 18.974 Q 238.311 18.429 237.963 18.11 Q 237.614 17.79 236.975 17.79 Q 236.331 17.79 235.762 18.118 L 235.762 18.763 Q 235.762 18.968 235.663 19.056 Q 235.563 19.144 235.323 19.144 Q 235.083 19.144 234.983 19.056 Q 234.884 18.968 234.884 18.763 L 234.884 17.902 Q 234.884 17.673 235.018 17.579 Q 235.446 17.269 235.944 17.096 Q 236.442 16.923 236.969 16.923 Z" style="fill: rgb(51, 51, 51);"/>
  <path d="M 246.132 16.923 Q 246.29 16.917 246.381 17.028 Q 246.471 17.14 246.471 17.439 Q 246.471 17.62 246.416 17.699 Q 246.36 17.778 246.255 17.784 Q 244.696 17.866 243.858 18.59 Q 243.02 19.314 242.856 20.556 Q 243.161 20.157 243.606 19.941 Q 244.051 19.724 244.555 19.724 Q 245.2 19.724 245.718 19.999 Q 246.237 20.275 246.533 20.778 Q 246.829 21.282 246.829 21.939 Q 246.829 22.571 246.53 23.072 Q 246.231 23.573 245.683 23.855 Q 245.135 24.136 244.426 24.136 Q 243.788 24.136 243.252 23.843 Q 242.716 23.55 242.387 22.993 Q 241.936 22.22 241.936 21.007 Q 241.936 19.993 242.367 19.091 Q 242.798 18.189 243.738 17.588 Q 244.678 16.987 246.132 16.923 Z M 244.426 20.591 Q 243.999 20.591 243.659 20.752 Q 243.319 20.913 243.129 21.197 Q 242.938 21.482 242.938 21.851 Q 242.938 22.261 243.123 22.583 Q 243.307 22.905 243.644 23.087 Q 243.981 23.269 244.426 23.269 Q 244.872 23.269 245.206 23.105 Q 245.54 22.941 245.721 22.639 Q 245.903 22.337 245.903 21.939 Q 245.903 21.534 245.724 21.23 Q 245.546 20.925 245.215 20.758 Q 244.884 20.591 244.426 20.591 Z" style="fill: rgb(51, 51, 51);"/>
  <path d="M 251.544 22.249 Q 251.966 22.249 252.15 22.334 Q 252.335 22.419 252.335 22.618 L 252.335 23.696 Q 252.335 23.896 252.15 23.981 Q 251.966 24.066 251.544 24.066 Q 251.122 24.066 250.937 23.981 Q 250.753 23.896 250.753 23.696 L 250.753 22.618 Q 250.753 22.419 250.937 22.334 Q 251.122 22.249 251.544 22.249 Z" style="fill: rgb(51, 51, 51);"/>
  <path d="M 260.794 17.052 Q 260.993 17.052 261.078 17.143 Q 261.163 17.234 261.163 17.45 Q 261.163 17.591 261.128 17.685 L 258.632 23.866 Q 258.579 24.001 258.465 24.069 Q 258.35 24.136 258.192 24.136 Q 257.981 24.136 257.849 24.051 Q 257.717 23.966 257.717 23.825 Q 257.717 23.743 257.747 23.679 L 260.132 17.849 L 257.354 17.849 L 257.354 18.704 Q 257.354 18.909 257.255 18.997 Q 257.155 19.085 256.915 19.085 Q 256.675 19.085 256.575 18.997 Q 256.475 18.909 256.475 18.704 L 256.475 17.45 Q 256.475 17.234 256.56 17.143 Q 256.645 17.052 256.844 17.052 L 260.794 17.052 Z" style="fill: rgb(51, 51, 51);"/>
  <path d="M 265.778 16.923 Q 266.452 16.923 266.956 17.16 Q 267.46 17.398 267.735 17.834 Q 268.01 18.271 268.01 18.857 Q 268.01 19.361 267.776 19.727 Q 267.542 20.093 267.114 20.31 Q 267.647 20.532 267.943 20.96 Q 268.239 21.388 268.239 21.986 Q 268.239 22.624 267.955 23.111 Q 267.671 23.597 267.126 23.866 Q 266.581 24.136 265.825 24.136 Q 265.251 24.136 264.665 23.937 Q 264.079 23.737 263.616 23.398 Q 263.44 23.269 263.44 23.105 Q 263.44 22.987 263.54 22.818 Q 263.692 22.571 263.88 22.571 Q 263.973 22.571 264.079 22.648 Q 264.466 22.935 264.917 23.102 Q 265.368 23.269 265.825 23.269 Q 266.551 23.269 266.932 22.926 Q 267.313 22.583 267.313 21.986 Q 267.313 21.382 266.929 21.069 Q 266.546 20.755 265.854 20.755 L 265.426 20.755 Q 265.227 20.755 265.142 20.664 Q 265.057 20.573 265.057 20.357 Q 265.057 20.14 265.142 20.049 Q 265.227 19.958 265.426 19.958 L 265.749 19.958 Q 266.417 19.958 266.762 19.677 Q 267.108 19.396 267.108 18.857 Q 267.108 18.359 266.762 18.074 Q 266.417 17.79 265.784 17.79 Q 265.104 17.79 264.63 18.019 L 264.63 18.411 Q 264.63 18.616 264.53 18.704 Q 264.43 18.792 264.19 18.792 Q 263.95 18.792 263.85 18.704 Q 263.751 18.616 263.751 18.411 L 263.751 17.773 Q 263.751 17.644 263.789 17.568 Q 263.827 17.491 263.909 17.439 Q 264.747 16.923 265.778 16.923 Z" style="fill: rgb(51, 51, 51);"/>
  <path d="M 274.694 17.052 Q 274.893 17.052 274.978 17.143 Q 275.063 17.234 275.063 17.45 Q 275.063 17.667 274.978 17.758 Q 274.893 17.849 274.694 17.849 L 271.964 17.849 L 271.887 19.73 Q 272.473 19.402 273.147 19.402 Q 273.85 19.402 274.366 19.7 Q 274.882 19.999 275.154 20.529 Q 275.426 21.06 275.426 21.745 Q 275.426 22.431 275.122 22.973 Q 274.817 23.515 274.255 23.825 Q 273.692 24.136 272.954 24.136 Q 272.391 24.136 271.823 23.948 Q 271.255 23.761 270.792 23.439 Q 270.61 23.316 270.61 23.14 Q 270.61 23.011 270.704 22.859 Q 270.856 22.607 271.044 22.607 Q 271.137 22.607 271.243 22.683 Q 271.624 22.952 272.069 23.111 Q 272.514 23.269 272.954 23.269 Q 273.428 23.269 273.78 23.078 Q 274.132 22.888 274.316 22.545 Q 274.501 22.202 274.501 21.745 Q 274.501 21.312 274.328 20.978 Q 274.155 20.644 273.83 20.456 Q 273.505 20.269 273.071 20.269 Q 272.673 20.269 272.356 20.371 Q 272.04 20.474 271.741 20.685 Q 271.647 20.743 271.448 20.743 Q 271.202 20.743 271.099 20.655 Q 270.997 20.568 271.009 20.362 L 271.126 17.433 Q 271.137 17.228 271.231 17.14 Q 271.325 17.052 271.565 17.052 L 274.694 17.052 Z" style="fill: rgb(51, 51, 51);"/>
</svg>