<?xml version="1.0" encoding="utf-8"?>
<svg viewBox="0 0 500 500" xmlns="http://www.w3.org/2000/svg">
  <rect x="71.569" y="5.991" width="50.166" height="30.68" style="stroke: rgb(0, 0, 0); fill: rgb(255, 255, 255);"/>
  <path d="M 20.917 23.047 Q 21.166 23.047 21.272 23.16 Q 21.378 23.274 21.378 23.545 Q 21.378 23.816 21.272 23.929 Q 21.166 24.043 20.917 24.043 L 15.98 24.043 Q 15.731 24.043 15.625 23.929 Q 15.519 23.816 15.519 23.545 Q 15.519 23.274 15.625 23.16 Q 15.731 23.047 15.98 23.047 L 17.95 23.047 L 17.95 16.763 L 16.127 17.898 Q 16.002 17.971 15.9 17.971 Q 15.665 17.971 15.497 17.671 Q 15.394 17.495 15.394 17.334 Q 15.394 17.085 15.621 16.953 L 18.383 15.254 Q 18.529 15.166 18.676 15.166 Q 18.837 15.166 18.943 15.272 Q 19.049 15.378 19.049 15.569 L 19.049 23.047 L 20.917 23.047 Z" style="fill: rgb(51, 51, 51); white-space: pre;"/>
  <path d="M 27.264 15.188 Q 28.202 15.188 28.909 15.748 Q 29.616 16.309 30 17.33 Q 30.385 18.352 30.385 19.7 Q 30.385 21.047 30 22.065 Q 29.616 23.084 28.912 23.644 Q 28.209 24.204 27.264 24.204 Q 26.32 24.204 25.616 23.644 Q 24.913 23.084 24.529 22.065 Q 24.144 21.047 24.144 19.7 Q 24.144 18.352 24.529 17.33 Q 24.913 16.309 25.62 15.748 Q 26.327 15.188 27.264 15.188 Z M 27.264 16.272 Q 26.686 16.272 26.243 16.678 Q 25.8 17.085 25.551 17.858 Q 25.302 18.63 25.302 19.7 Q 25.302 20.769 25.551 21.542 Q 25.8 22.314 26.243 22.717 Q 26.686 23.12 27.264 23.12 Q 27.843 23.12 28.286 22.717 Q 28.729 22.314 28.978 21.542 Q 29.227 20.769 29.227 19.7 Q 29.227 18.63 28.978 17.858 Q 28.729 17.085 28.286 16.678 Q 27.843 16.272 27.264 16.272 Z" style="fill: rgb(51, 51, 51); white-space: pre;"/>
  <path d="M 36.264 15.188 Q 37.202 15.188 37.909 15.748 Q 38.616 16.309 39 17.33 Q 39.385 18.352 39.385 19.7 Q 39.385 21.047 39 22.065 Q 38.616 23.084 37.912 23.644 Q 37.209 24.204 36.264 24.204 Q 35.32 24.204 34.616 23.644 Q 33.913 23.084 33.529 22.065 Q 33.144 21.047 33.144 19.7 Q 33.144 18.352 33.529 17.33 Q 33.913 16.309 34.62 15.748 Q 35.327 15.188 36.264 15.188 Z M 36.264 16.272 Q 35.686 16.272 35.243 16.678 Q 34.8 17.085 34.551 17.858 Q 34.302 18.63 34.302 19.7 Q 34.302 20.769 34.551 21.542 Q 34.8 22.314 35.243 22.717 Q 35.686 23.12 36.264 23.12 Q 36.843 23.12 37.286 22.717 Q 37.729 22.314 37.978 21.542 Q 38.227 20.769 38.227 19.7 Q 38.227 18.63 37.978 17.858 Q 37.729 17.085 37.286 16.678 Q 36.843 16.272 36.264 16.272 Z" style="fill: rgb(51, 51, 51); white-space: pre;"/>
  <g transform="matrix(1, 0, 0, 1, 13.971718, -21.4233)">
    <path style="stroke: rgb(0, 0, 0); fill: rgb(255, 255, 255);" d="M 38.828 41.078 C 38.828 41.078 53.715 41.176 53.617 41.176 C 53.519 41.176 49.699 35.985 49.699 35.985"/>
    <path style="fill: rgb(216, 216, 216); stroke: rgb(0, 0, 0);" d="M 49.497 46.047 L 53.568 41.219"/>
  </g>
  <path d="M 86.124 17.563 Q 86.424 17.563 86.549 17.673 Q 86.674 17.783 86.674 18.039 L 86.674 19.431 Q 86.674 19.687 86.549 19.797 Q 86.424 19.907 86.124 19.907 Q 85.875 19.907 85.773 19.717 Q 85.458 19.116 84.857 18.871 Q 84.257 18.625 83.334 18.625 Q 82.623 18.625 82.224 18.878 Q 81.825 19.131 81.825 19.585 Q 81.825 19.819 81.975 19.966 Q 82.125 20.112 82.418 20.207 Q 82.66 20.288 82.978 20.332 Q 83.297 20.376 83.802 20.427 Q 84.513 20.508 84.949 20.577 Q 85.384 20.647 85.773 20.786 Q 86.359 20.998 86.685 21.401 Q 87.01 21.804 87.01 22.463 Q 87.01 23.122 86.677 23.617 Q 86.344 24.111 85.703 24.382 Q 85.062 24.653 84.169 24.653 Q 83.378 24.653 82.777 24.433 Q 82.176 24.214 81.73 23.767 L 81.73 24.177 Q 81.73 24.433 81.605 24.543 Q 81.481 24.653 81.18 24.653 Q 80.88 24.653 80.756 24.543 Q 80.631 24.433 80.631 24.177 L 80.631 22.419 Q 80.631 22.163 80.756 22.053 Q 80.88 21.943 81.18 21.943 Q 81.334 21.943 81.422 22.013 Q 81.51 22.082 81.576 22.243 Q 81.84 22.947 82.455 23.269 Q 83.07 23.591 84.095 23.591 Q 84.945 23.591 85.399 23.284 Q 85.853 22.976 85.853 22.463 Q 85.853 22.214 85.692 22.053 Q 85.531 21.892 85.231 21.789 Q 84.974 21.709 84.641 21.654 Q 84.308 21.599 83.795 21.548 Q 83.107 21.474 82.645 21.394 Q 82.184 21.313 81.796 21.159 Q 81.261 20.947 80.964 20.57 Q 80.668 20.193 80.668 19.585 Q 80.668 18.948 81.001 18.49 Q 81.334 18.032 81.924 17.798 Q 82.513 17.563 83.26 17.563 Q 83.971 17.563 84.56 17.776 Q 85.15 17.988 85.575 18.369 L 85.575 18.039 Q 85.575 17.783 85.699 17.673 Q 85.824 17.563 86.124 17.563 Z" style="white-space: pre;"/>
  <path d="M 92.399 17.563 Q 93.116 17.563 93.724 17.886 Q 94.332 18.208 94.794 18.808 L 94.794 18.222 Q 94.794 17.951 94.9 17.838 Q 95.006 17.724 95.255 17.724 L 96.42 17.724 Q 96.669 17.724 96.775 17.838 Q 96.881 17.951 96.881 18.222 Q 96.881 18.493 96.775 18.607 Q 96.669 18.721 96.42 18.721 L 95.819 18.721 L 95.819 26.338 L 96.566 26.338 Q 96.815 26.338 96.921 26.451 Q 97.028 26.565 97.028 26.836 Q 97.028 27.107 96.921 27.22 Q 96.815 27.334 96.566 27.334 L 93.461 27.334 Q 93.212 27.334 93.105 27.22 Q 92.999 27.107 92.999 26.836 Q 92.999 26.565 93.105 26.451 Q 93.212 26.338 93.461 26.338 L 94.72 26.338 L 94.72 23.445 Q 93.776 24.653 92.399 24.653 Q 91.49 24.653 90.773 24.225 Q 90.055 23.796 89.645 22.994 Q 89.235 22.192 89.235 21.108 Q 89.235 20.024 89.645 19.222 Q 90.055 18.42 90.773 17.992 Q 91.49 17.563 92.399 17.563 Z M 92.472 18.647 Q 91.82 18.647 91.351 18.959 Q 90.882 19.27 90.637 19.826 Q 90.392 20.383 90.392 21.108 Q 90.392 21.833 90.637 22.39 Q 90.882 22.947 91.351 23.258 Q 91.82 23.569 92.472 23.569 Q 93.124 23.569 93.633 23.276 Q 94.142 22.983 94.431 22.427 Q 94.72 21.87 94.72 21.108 Q 94.72 20.346 94.431 19.79 Q 94.142 19.233 93.633 18.94 Q 93.124 18.647 92.472 18.647 Z" style="white-space: pre;"/>
  <path d="M 104.043 17.563 Q 104.614 17.563 105.112 17.856 Q 105.405 18.032 105.405 18.31 Q 105.405 18.442 105.339 18.618 Q 105.185 19.035 104.914 19.035 Q 104.804 19.035 104.709 18.977 Q 104.35 18.779 103.94 18.779 Q 103.281 18.779 102.614 19.237 Q 101.948 19.695 101.519 20.456 Q 101.091 21.218 101.091 22.075 L 101.091 23.496 L 103.559 23.496 Q 103.808 23.496 103.914 23.609 Q 104.021 23.723 104.021 23.994 Q 104.021 24.265 103.914 24.378 Q 103.808 24.492 103.559 24.492 L 98.842 24.492 Q 98.593 24.492 98.487 24.378 Q 98.381 24.265 98.381 23.994 Q 98.381 23.723 98.487 23.609 Q 98.593 23.496 98.842 23.496 L 99.992 23.496 L 99.992 18.721 L 99.062 18.721 Q 98.813 18.721 98.707 18.607 Q 98.601 18.493 98.601 18.222 Q 98.601 17.951 98.707 17.838 Q 98.813 17.724 99.062 17.724 L 100.556 17.724 Q 100.805 17.724 100.912 17.838 Q 101.018 17.951 101.018 18.222 L 101.018 19.702 Q 101.369 19.057 101.867 18.574 Q 102.365 18.091 102.929 17.827 Q 103.493 17.563 104.043 17.563 Z" style="white-space: pre;"/>
  <path d="M 109.643 15.637 Q 109.944 15.637 110.068 15.747 Q 110.193 15.857 110.193 16.113 L 110.193 18.31 L 113.203 18.31 Q 113.452 18.31 113.558 18.424 Q 113.664 18.537 113.664 18.808 Q 113.664 19.079 113.558 19.193 Q 113.452 19.306 113.203 19.306 L 110.193 19.306 L 110.193 21.972 Q 110.193 22.807 110.482 23.196 Q 110.771 23.584 111.489 23.584 Q 111.98 23.584 112.522 23.386 Q 113.064 23.188 113.569 22.859 Q 113.672 22.785 113.796 22.785 Q 114.045 22.785 114.221 23.122 Q 114.316 23.313 114.316 23.452 Q 114.316 23.686 114.074 23.833 Q 113.503 24.192 112.8 24.422 Q 112.097 24.653 111.489 24.653 Q 110.244 24.653 109.669 24.005 Q 109.094 23.357 109.094 22.068 L 109.094 19.306 L 107.607 19.306 Q 107.358 19.306 107.252 19.193 Q 107.146 19.079 107.146 18.808 Q 107.146 18.537 107.252 18.424 Q 107.358 18.31 107.607 18.31 L 109.094 18.31 L 109.094 16.113 Q 109.094 15.857 109.218 15.747 Q 109.343 15.637 109.643 15.637 Z" style="white-space: pre;"/>
  <g transform="matrix(1, 0, 0, 1, 85.879761, -21.180817)">
    <path style="stroke: rgb(0, 0, 0); fill: rgb(255, 255, 255);" d="M 38.828 41.078 C 38.828 41.078 53.715 41.176 53.617 41.176 C 53.519 41.176 49.699 35.985 49.699 35.985"/>
    <path style="fill: rgb(216, 216, 216); stroke: rgb(0, 0, 0);" d="M 49.497 46.047 L 53.568 41.219"/>
  </g>
  <path d="M 151.67 23.496 Q 151.919 23.496 152.025 23.609 Q 152.131 23.723 152.131 23.994 Q 152.131 24.265 152.025 24.378 Q 151.919 24.492 151.67 24.492 L 146.733 24.492 Q 146.484 24.492 146.378 24.378 Q 146.272 24.265 146.272 23.994 Q 146.272 23.723 146.378 23.609 Q 146.484 23.496 146.733 23.496 L 148.703 23.496 L 148.703 17.212 L 146.88 18.347 Q 146.755 18.42 146.653 18.42 Q 146.418 18.42 146.25 18.12 Q 146.147 17.944 146.147 17.783 Q 146.147 17.534 146.374 17.402 L 149.136 15.703 Q 149.282 15.615 149.429 15.615 Q 149.59 15.615 149.696 15.721 Q 149.802 15.827 149.802 16.018 L 149.802 23.496 L 151.67 23.496 Z" style="fill: rgb(51, 51, 51); white-space: pre;"/>
  <path d="M 158.017 15.637 Q 158.955 15.637 159.662 16.197 Q 160.369 16.758 160.753 17.779 Q 161.138 18.801 161.138 20.149 Q 161.138 21.496 160.753 22.514 Q 160.369 23.533 159.665 24.093 Q 158.962 24.653 158.017 24.653 Q 157.073 24.653 156.369 24.093 Q 155.666 23.533 155.282 22.514 Q 154.897 21.496 154.897 20.149 Q 154.897 18.801 155.282 17.779 Q 155.666 16.758 156.373 16.197 Q 157.08 15.637 158.017 15.637 Z M 158.017 16.721 Q 157.439 16.721 156.996 17.127 Q 156.553 17.534 156.304 18.307 Q 156.055 19.079 156.055 20.149 Q 156.055 21.218 156.304 21.991 Q 156.553 22.763 156.996 23.166 Q 157.439 23.569 158.017 23.569 Q 158.596 23.569 159.039 23.166 Q 159.482 22.763 159.731 21.991 Q 159.98 21.218 159.98 20.149 Q 159.98 19.079 159.731 18.307 Q 159.482 17.534 159.039 17.127 Q 158.596 16.721 158.017 16.721 Z" style="fill: rgb(51, 51, 51); white-space: pre;"/>
  <rect x="71.817" y="44.392" width="50.166" height="30.68" style="stroke: rgb(0, 0, 0); fill: rgb(255, 255, 255);"/>
  <path d="M 9.216 52.529 Q 9.56 52.529 9.516 52.895 L 9.114 56.191 Q 9.092 56.381 8.963 56.484 Q 8.835 56.586 8.615 56.586 Q 8.403 56.586 8.271 56.484 Q 8.139 56.381 8.117 56.191 L 7.715 52.895 Q 7.671 52.529 8.015 52.529 L 9.216 52.529 Z M 12.585 52.529 Q 12.929 52.529 12.886 52.895 L 12.483 56.191 Q 12.461 56.381 12.333 56.484 Q 12.204 56.586 11.985 56.586 Q 11.772 56.586 11.64 56.484 Q 11.509 56.381 11.487 56.191 L 11.084 52.895 Q 11.04 52.529 11.384 52.529 L 12.585 52.529 Z" style="fill: rgb(186, 33, 40); white-space: pre;"/>
  <path d="M 21.921 60.827 Q 22.17 60.827 22.276 60.94 Q 22.383 61.054 22.383 61.325 Q 22.383 61.596 22.276 61.709 Q 22.17 61.823 21.921 61.823 L 16.985 61.823 Q 16.736 61.823 16.629 61.709 Q 16.523 61.596 16.523 61.325 Q 16.523 61.054 16.629 60.94 Q 16.736 60.827 16.985 60.827 L 18.955 60.827 L 18.955 54.543 L 17.131 55.678 Q 17.007 55.751 16.904 55.751 Q 16.67 55.751 16.501 55.451 Q 16.399 55.275 16.399 55.114 Q 16.399 54.865 16.626 54.733 L 19.387 53.034 Q 19.533 52.946 19.68 52.946 Q 19.841 52.946 19.947 53.052 Q 20.053 53.158 20.053 53.349 L 20.053 60.827 L 21.921 60.827 Z" style="fill: rgb(186, 33, 40); white-space: pre;"/>
  <path d="M 28.284 52.968 Q 29.222 52.968 29.929 53.528 Q 30.636 54.089 31.02 55.11 Q 31.405 56.132 31.405 57.48 Q 31.405 58.827 31.02 59.845 Q 30.636 60.864 29.932 61.424 Q 29.229 61.984 28.284 61.984 Q 27.34 61.984 26.636 61.424 Q 25.933 60.864 25.549 59.845 Q 25.164 58.827 25.164 57.48 Q 25.164 56.132 25.549 55.11 Q 25.933 54.089 26.64 53.528 Q 27.347 52.968 28.284 52.968 Z M 28.284 54.052 Q 27.706 54.052 27.263 54.458 Q 26.82 54.865 26.571 55.638 Q 26.322 56.41 26.322 57.48 Q 26.322 58.549 26.571 59.322 Q 26.82 60.094 27.263 60.497 Q 27.706 60.9 28.284 60.9 Q 28.863 60.9 29.306 60.497 Q 29.749 60.094 29.998 59.322 Q 30.247 58.549 30.247 57.48 Q 30.247 56.41 29.998 55.638 Q 29.749 54.865 29.306 54.458 Q 28.863 54.052 28.284 54.052 Z" style="fill: rgb(186, 33, 40); white-space: pre;"/>
  <path d="M 37.269 52.968 Q 38.206 52.968 38.913 53.528 Q 39.62 54.089 40.004 55.11 Q 40.389 56.132 40.389 57.48 Q 40.389 58.827 40.004 59.845 Q 39.62 60.864 38.917 61.424 Q 38.214 61.984 37.269 61.984 Q 36.324 61.984 35.621 61.424 Q 34.918 60.864 34.533 59.845 Q 34.149 58.827 34.149 57.48 Q 34.149 56.132 34.533 55.11 Q 34.918 54.089 35.625 53.528 Q 36.331 52.968 37.269 52.968 Z M 37.269 54.052 Q 36.69 54.052 36.247 54.458 Q 35.804 54.865 35.555 55.638 Q 35.306 56.41 35.306 57.48 Q 35.306 58.549 35.555 59.322 Q 35.804 60.094 36.247 60.497 Q 36.69 60.9 37.269 60.9 Q 37.847 60.9 38.291 60.497 Q 38.734 60.094 38.983 59.322 Q 39.232 58.549 39.232 57.48 Q 39.232 56.41 38.983 55.638 Q 38.734 54.865 38.291 54.458 Q 37.847 54.052 37.269 54.052 Z" style="fill: rgb(186, 33, 40); white-space: pre;"/>
  <path d="M 45.185 52.529 Q 45.529 52.529 45.485 52.895 L 45.082 56.191 Q 45.06 56.381 44.932 56.484 Q 44.804 56.586 44.584 56.586 Q 44.372 56.586 44.24 56.484 Q 44.108 56.381 44.086 56.191 L 43.683 52.895 Q 43.639 52.529 43.984 52.529 L 45.185 52.529 Z M 48.554 52.529 Q 48.898 52.529 48.854 52.895 L 48.451 56.191 Q 48.429 56.381 48.301 56.484 Q 48.173 56.586 47.953 56.586 Q 47.741 56.586 47.609 56.484 Q 47.477 56.381 47.455 56.191 L 47.053 52.895 Q 47.009 52.529 47.353 52.529 L 48.554 52.529 Z" style="fill: rgb(186, 33, 40); white-space: pre;"/>
  <g transform="matrix(1, 0, 0, 1, 14.219696, 16.977474)">
    <path style="stroke: rgb(0, 0, 0); fill: rgb(255, 255, 255);" d="M 38.828 41.078 C 38.828 41.078 53.715 41.176 53.617 41.176 C 53.519 41.176 49.699 35.985 49.699 35.985"/>
    <path style="fill: rgb(216, 216, 216); stroke: rgb(0, 0, 0);" d="M 49.497 46.047 L 53.568 41.219"/>
  </g>
  <path d="M 87.589 55.97 Q 87.838 55.97 87.944 56.084 Q 88.05 56.197 88.05 56.468 L 88.05 61.742 L 90.401 61.742 Q 90.65 61.742 90.756 61.855 Q 90.863 61.969 90.863 62.24 Q 90.863 62.511 90.756 62.624 Q 90.65 62.738 90.401 62.738 L 84.659 62.738 Q 84.41 62.738 84.304 62.624 Q 84.198 62.511 84.198 62.24 Q 84.198 61.969 84.304 61.855 Q 84.41 61.742 84.659 61.742 L 86.952 61.742 L 86.952 56.967 L 85.099 56.967 Q 84.849 56.967 84.743 56.853 Q 84.637 56.739 84.637 56.468 Q 84.637 56.197 84.743 56.084 Q 84.849 55.97 85.099 55.97 L 87.589 55.97 Z M 87.354 52.755 Q 87.757 52.755 87.904 52.861 Q 88.05 52.967 88.05 53.231 L 88.05 54.183 Q 88.05 54.447 87.904 54.553 Q 87.757 54.659 87.354 54.659 Q 86.952 54.659 86.805 54.553 Q 86.659 54.447 86.659 54.183 L 86.659 53.231 Q 86.659 52.967 86.805 52.861 Q 86.952 52.755 87.354 52.755 Z" style="white-space: pre;"/>
  <path d="M 97.137 55.809 Q 97.804 55.809 98.294 56.099 Q 98.785 56.388 99.049 56.93 Q 99.312 57.472 99.312 58.197 L 99.312 61.742 L 99.913 61.742 Q 100.162 61.742 100.268 61.855 Q 100.374 61.969 100.374 62.24 Q 100.374 62.511 100.268 62.624 Q 100.162 62.738 99.913 62.738 L 97.54 62.738 Q 97.291 62.738 97.185 62.624 Q 97.078 62.511 97.078 62.24 Q 97.078 61.969 97.185 61.855 Q 97.291 61.742 97.54 61.742 L 98.214 61.742 L 98.214 58.307 Q 98.214 57.655 97.913 57.274 Q 97.613 56.893 97.027 56.893 Q 96.405 56.893 95.866 57.252 Q 95.328 57.611 95.006 58.241 Q 94.683 58.871 94.683 59.647 L 94.683 61.742 L 95.357 61.742 Q 95.606 61.742 95.713 61.855 Q 95.819 61.969 95.819 62.24 Q 95.819 62.511 95.713 62.624 Q 95.606 62.738 95.357 62.738 L 92.984 62.738 Q 92.735 62.738 92.629 62.624 Q 92.523 62.511 92.523 62.24 Q 92.523 61.969 92.629 61.855 Q 92.735 61.742 92.984 61.742 L 93.585 61.742 L 93.585 56.967 L 92.838 56.967 Q 92.589 56.967 92.483 56.853 Q 92.376 56.739 92.376 56.468 Q 92.376 56.197 92.483 56.084 Q 92.589 55.97 92.838 55.97 L 94.149 55.97 Q 94.398 55.97 94.504 56.084 Q 94.61 56.197 94.61 56.468 L 94.61 57.347 Q 95.094 56.6 95.742 56.205 Q 96.39 55.809 97.137 55.809 Z" style="white-space: pre;"/>
  <path d="M 104.167 53.883 Q 104.467 53.883 104.592 53.993 Q 104.716 54.103 104.716 54.359 L 104.716 56.556 L 107.726 56.556 Q 107.975 56.556 108.082 56.67 Q 108.188 56.783 108.188 57.054 Q 108.188 57.325 108.082 57.439 Q 107.975 57.552 107.726 57.552 L 104.716 57.552 L 104.716 60.218 Q 104.716 61.053 105.005 61.442 Q 105.295 61.83 106.013 61.83 Q 106.503 61.83 107.045 61.632 Q 107.587 61.434 108.093 61.105 Q 108.195 61.031 108.32 61.031 Q 108.569 61.031 108.745 61.368 Q 108.84 61.559 108.84 61.698 Q 108.84 61.932 108.598 62.079 Q 108.027 62.438 107.324 62.668 Q 106.62 62.899 106.013 62.899 Q 104.767 62.899 104.193 62.251 Q 103.618 61.603 103.618 60.314 L 103.618 57.552 L 102.131 57.552 Q 101.882 57.552 101.776 57.439 Q 101.669 57.325 101.669 57.054 Q 101.669 56.783 101.776 56.67 Q 101.882 56.556 102.131 56.556 L 103.618 56.556 L 103.618 54.359 Q 103.618 54.103 103.742 53.993 Q 103.867 53.883 104.167 53.883 Z" style="white-space: pre;"/>
  <g transform="matrix(1, 0, 0, 1, 86.127739, 17.219959)">
    <path style="stroke: rgb(0, 0, 0); fill: rgb(255, 255, 255);" d="M 38.828 41.078 C 38.828 41.078 53.715 41.176 53.617 41.176 C 53.519 41.176 49.699 35.985 49.699 35.985"/>
    <path style="fill: rgb(216, 216, 216); stroke: rgb(0, 0, 0);" d="M 49.497 46.047 L 53.568 41.219"/>
  </g>
  <path d="M 151.918 61.897 Q 152.167 61.897 152.273 62.01 Q 152.379 62.124 152.379 62.395 Q 152.379 62.666 152.273 62.779 Q 152.167 62.893 151.918 62.893 L 146.981 62.893 Q 146.732 62.893 146.626 62.779 Q 146.52 62.666 146.52 62.395 Q 146.52 62.124 146.626 62.01 Q 146.732 61.897 146.981 61.897 L 148.951 61.897 L 148.951 55.613 L 147.128 56.748 Q 147.003 56.821 146.901 56.821 Q 146.666 56.821 146.498 56.521 Q 146.395 56.345 146.395 56.184 Q 146.395 55.935 146.622 55.803 L 149.384 54.104 Q 149.53 54.016 149.677 54.016 Q 149.838 54.016 149.944 54.122 Q 150.05 54.228 150.05 54.419 L 150.05 61.897 L 151.918 61.897 Z" style="fill: rgb(51, 51, 51); white-space: pre;"/>
  <path d="M 158.265 54.038 Q 159.203 54.038 159.91 54.598 Q 160.617 55.159 161.001 56.18 Q 161.386 57.202 161.386 58.55 Q 161.386 59.897 161.001 60.915 Q 160.617 61.934 159.913 62.494 Q 159.21 63.054 158.265 63.054 Q 157.321 63.054 156.617 62.494 Q 155.914 61.934 155.53 60.915 Q 155.145 59.897 155.145 58.55 Q 155.145 57.202 155.53 56.18 Q 155.914 55.159 156.621 54.598 Q 157.328 54.038 158.265 54.038 Z M 158.265 55.122 Q 157.687 55.122 157.244 55.528 Q 156.801 55.935 156.552 56.708 Q 156.303 57.48 156.303 58.55 Q 156.303 59.619 156.552 60.392 Q 156.801 61.164 157.244 61.567 Q 157.687 61.97 158.265 61.97 Q 158.844 61.97 159.287 61.567 Q 159.73 61.164 159.979 60.392 Q 160.228 59.619 160.228 58.55 Q 160.228 57.48 159.979 56.708 Q 159.73 55.935 159.287 55.528 Q 158.844 55.122 158.265 55.122 Z" style="fill: rgb(51, 51, 51); white-space: pre;"/>
  <path d="M 167.265 54.038 Q 168.203 54.038 168.91 54.598 Q 169.617 55.159 170.001 56.18 Q 170.386 57.202 170.386 58.55 Q 170.386 59.897 170.001 60.915 Q 169.617 61.934 168.913 62.494 Q 168.21 63.054 167.265 63.054 Q 166.321 63.054 165.617 62.494 Q 164.914 61.934 164.53 60.915 Q 164.145 59.897 164.145 58.55 Q 164.145 57.202 164.53 56.18 Q 164.914 55.159 165.621 54.598 Q 166.328 54.038 167.265 54.038 Z M 167.265 55.122 Q 166.687 55.122 166.244 55.528 Q 165.801 55.935 165.552 56.708 Q 165.303 57.48 165.303 58.55 Q 165.303 59.619 165.552 60.392 Q 165.801 61.164 166.244 61.567 Q 166.687 61.97 167.265 61.97 Q 167.844 61.97 168.287 61.567 Q 168.73 61.164 168.979 60.392 Q 169.228 59.619 169.228 58.55 Q 169.228 57.48 168.979 56.708 Q 168.73 55.935 168.287 55.528 Q 167.844 55.122 167.265 55.122 Z" style="fill: rgb(51, 51, 51); white-space: pre;"/>
</svg>